<?xml version="1.0" standalone="no"?>
<!DOCTYPE svg PUBLIC "-//W3C//DTD SVG 20010904//EN"
 "http://www.w3.org/TR/2001/REC-SVG-20010904/DTD/svg10.dtd">
<svg version="1.0" xmlns="http://www.w3.org/2000/svg"
 width="2743.000000pt" height="1950.000000pt" viewBox="0 0 2743.000000 1950.000000"
 preserveAspectRatio="xMidYMid meet">
<metadata>
Created by potrace 1.16, written by Peter Selinger 2001-2019
</metadata>
<g transform="translate(0.000000,1950.000000) scale(0.100000,-0.100000)"
fill="#000000" stroke="none">
<path d="M320 9740 l0 -9390 13395 0 13395 0 0 9390 0 9390 -13395 0 -13395 0
0 -9390z m13630 6986 c52 -34 196 -127 320 -206 124 -78 258 -165 298 -191 41
-27 79 -46 84 -42 6 3 8 2 5 -4 -3 -5 22 -26 56 -46 34 -21 128 -80 209 -131
80 -52 150 -91 154 -88 4 4 4 2 1 -4 -4 -6 14 -22 41 -37 26 -15 98 -59 159
-99 155 -100 259 -167 533 -341 129 -83 303 -193 385 -247 205 -131 269 -172
304 -191 17 -9 46 -28 66 -43 20 -15 40 -24 48 -20 6 4 9 3 4 -1 -8 -9 17 -26
563 -373 30 -19 78 -49 105 -67 28 -18 106 -68 175 -112 113 -72 232 -148 465
-298 44 -28 105 -66 135 -85 30 -19 119 -76 198 -127 80 -52 149 -90 155 -87
7 4 9 4 5 -1 -10 -11 183 -136 200 -130 7 3 11 1 8 -4 -4 -5 31 -33 77 -61 45
-29 114 -74 153 -99 39 -25 135 -86 213 -136 263 -167 280 -178 501 -320 19
-12 87 -55 150 -95 170 -109 271 -173 412 -263 70 -45 162 -104 205 -132 43
-27 114 -72 158 -101 254 -162 573 -365 655 -416 52 -33 103 -67 112 -75 9 -8
22 -12 30 -7 7 4 10 4 6 -1 -10 -11 183 -136 200 -130 7 3 11 1 8 -4 -3 -5 29
-31 72 -57 42 -27 112 -71 154 -99 42 -27 116 -75 164 -105 47 -30 136 -86
195 -125 60 -38 173 -110 250 -160 78 -49 181 -116 230 -147 49 -32 89 -55 89
-53 0 3 8 -2 18 -11 9 -8 114 -77 232 -153 118 -75 282 -179 363 -231 82 -52
170 -108 197 -125 27 -16 57 -36 67 -42 18 -13 135 -88 393 -252 80 -51 164
-106 188 -122 24 -16 48 -26 54 -23 6 4 9 3 6 -2 -3 -5 62 -52 145 -104 83
-52 192 -122 243 -155 51 -33 141 -91 200 -128 l108 -69 -82 -52 c-45 -29 -79
-56 -74 -61 4 -4 1 -5 -6 -1 -7 5 -21 2 -30 -6 -9 -8 -129 -86 -267 -173 -137
-87 -293 -186 -345 -220 -52 -34 -123 -79 -158 -101 -34 -21 -118 -75 -187
-119 -69 -44 -248 -159 -399 -255 -151 -96 -272 -179 -268 -184 3 -5 0 -6 -6
-2 -6 3 -63 -28 -127 -69 -63 -42 -166 -107 -228 -146 -62 -39 -111 -74 -110
-78 1 -4 -3 -8 -10 -8 -14 0 -230 -133 -235 -145 -2 -4 -8 -8 -12 -8 -19 0
-160 -97 -152 -105 4 -5 2 -6 -3 -2 -14 8 -207 -117 -198 -128 5 -4 3 -5 -4
-2 -10 6 -183 -100 -510 -312 -56 -36 -152 -97 -213 -136 -61 -38 -135 -85
-163 -104 -29 -18 -194 -124 -367 -234 -173 -110 -435 -277 -582 -371 -148
-94 -397 -254 -555 -354 -159 -101 -287 -188 -285 -194 1 -5 -2 -7 -7 -3 -6 3
-50 -20 -98 -51 -48 -32 -131 -85 -183 -119 -52 -34 -115 -74 -140 -89 -25
-15 -153 -96 -285 -181 -132 -84 -327 -208 -432 -276 -106 -67 -193 -126 -193
-130 0 -5 -3 -8 -8 -7 -4 2 -59 -30 -122 -70 -269 -170 -469 -298 -545 -347
-101 -65 -222 -142 -300 -190 -44 -27 -82 -52 -85 -55 -3 -3 -54 -37 -115 -74
-60 -38 -146 -93 -190 -121 -44 -29 -156 -101 -250 -160 -259 -164 -304 -193
-450 -287 -75 -49 -138 -88 -140 -88 -3 0 -31 -18 -63 -39 -51 -35 -246 -160
-450 -290 -41 -25 -106 -67 -145 -92 -40 -25 -153 -98 -252 -161 -99 -63 -216
-137 -260 -166 -44 -28 -152 -97 -240 -152 -88 -56 -214 -137 -280 -180 -66
-43 -159 -102 -207 -131 -48 -29 -84 -57 -81 -62 3 -6 1 -7 -5 -3 -6 3 -17 0
-24 -8 -17 -18 -38 -10 -121 49 -38 26 -72 43 -78 39 -7 -4 -10 -3 -7 2 4 5
-53 47 -125 93 -73 46 -176 113 -230 148 -54 35 -103 61 -109 57 -7 -4 -8 -3
-4 4 4 7 1 12 -8 12 -8 0 -16 4 -18 8 -3 9 -108 78 -313 207 -77 48 -185 117
-240 153 -151 98 -152 98 -430 275 -143 90 -279 177 -302 192 -23 15 -45 27
-49 25 -4 -1 -10 3 -13 8 -6 10 -263 177 -333 217 -9 6 -34 22 -55 36 -21 15
-90 59 -153 99 -63 40 -164 105 -225 143 -60 39 -132 85 -160 103 -27 17 -97
62 -155 99 -195 126 -343 217 -356 219 -8 1 -17 6 -21 11 -4 4 -1 5 7 1 22
-10 -7 10 -133 91 -241 154 -312 198 -324 197 -7 -1 -11 2 -8 6 3 5 -16 20
-42 36 -27 15 -73 44 -103 64 -30 20 -122 80 -205 132 -337 215 -663 422 -710
453 -27 18 -176 112 -330 210 -154 97 -319 202 -367 234 -47 31 -133 86 -190
122 -57 36 -145 92 -195 125 -218 139 -258 162 -267 157 -5 -3 -6 -2 -3 3 3 6
-15 23 -41 39 -26 16 -135 85 -242 154 -107 68 -244 156 -305 194 -60 39 -168
108 -238 154 -70 46 -130 83 -132 83 -2 0 -55 33 -117 73 -62 41 -165 106
-228 147 -63 40 -154 98 -202 129 -47 31 -143 92 -213 136 -69 44 -158 101
-198 126 -40 26 -191 123 -337 216 -146 93 -307 196 -358 228 -51 33 -139 89
-195 124 -56 35 -163 103 -237 151 -208 135 -292 185 -302 182 -5 -1 -7 1 -5
5 3 5 -59 48 -137 97 -77 49 -177 113 -221 141 -346 224 -508 324 -517 318 -6
-3 -8 -2 -5 3 3 6 -15 23 -41 39 -56 35 -164 104 -321 206 -63 41 -117 74
-120 74 -3 0 -13 5 -21 12 -8 7 -24 19 -35 27 -11 8 -18 16 -15 19 11 9 218
142 263 169 26 15 53 33 60 38 7 6 37 26 67 45 226 143 543 345 630 401 58 37
130 83 160 102 30 19 66 42 80 51 14 10 137 88 273 175 338 215 348 222 339
231 -4 5 -2 5 5 1 6 -3 27 4 46 16 18 13 115 75 214 138 100 63 178 119 175
124 -3 5 0 6 6 3 5 -4 43 15 84 42 40 26 174 112 298 191 124 79 264 168 312
199 210 135 325 209 508 325 201 129 411 262 480 306 22 14 123 79 226 145
103 66 224 143 268 171 191 120 265 171 258 179 -4 5 -2 5 5 2 6 -4 33 8 60
26 27 17 123 79 215 137 91 58 164 109 161 114 -4 5 -1 6 5 2 6 -3 39 13 74
37 35 23 79 52 98 63 39 24 378 240 543 347 68 44 103 73 96 78 -7 4 -2 7 12
6 15 -1 135 70 334 197 171 109 320 208 333 219 12 11 22 18 22 14 0 -4 40 19
88 51 86 55 120 77 437 279 83 53 193 124 245 158 52 34 116 74 143 89 26 15
45 31 42 35 -2 4 2 8 9 8 22 0 405 247 399 257 -4 5 -1 6 5 3 5 -4 43 15 84
41 114 76 312 203 440 284 64 40 185 117 270 171 84 54 266 170 403 258 138
88 291 186 340 218 50 32 164 105 255 163 91 58 233 149 315 201 83 53 191
122 242 154 50 31 90 60 87 64 -2 4 4 6 14 5 9 0 16 4 15 10 -1 6 4 11 10 11
21 0 405 247 399 257 -3 5 0 6 5 3 6 -4 28 6 50 22 21 15 59 39 83 53 l45 25
65 -40 c36 -22 108 -67 160 -101z"/>
<path d="M13530 14444 c-1088 -49 -1990 -396 -2805 -1078 -66 -55 -208 -188
-315 -296 -294 -294 -510 -567 -730 -920 -58 -92 -264 -490 -257 -496 2 -2 69
5 148 15 160 22 477 54 729 73 226 18 1277 18 1495 0 421 -34 667 -61 945
-103 1430 -216 2767 -685 4030 -1414 501 -289 1117 -718 1513 -1053 84 -70 99
-78 103 -49 31 218 40 864 16 1092 -33 306 -74 544 -138 785 -240 913 -783
1741 -1574 2397 -675 560 -1451 898 -2315 1008 -249 31 -628 49 -845 39z
m1682 -3121 l19 -52 72 -3 71 -3 -57 -39 c-31 -22 -57 -42 -57 -46 0 -4 9 -33
20 -65 11 -32 18 -60 16 -62 -2 -3 -26 12 -54 31 -27 20 -54 36 -59 36 -5 0
-32 -16 -59 -35 -27 -19 -52 -35 -55 -35 -4 0 4 29 17 65 l24 65 -61 42 -61
43 75 3 76 3 16 52 c27 86 27 84 33 67 2 -8 13 -38 24 -67z"/>
<path d="M10728 11642 l-78 -3 0 -188 c0 -104 3 -203 6 -220 l7 -31 106 0 c58
0 122 4 141 10 46 13 113 68 106 87 -3 8 -2 12 3 9 15 -10 33 82 29 147 -5 80
-39 137 -101 168 -44 23 -81 26 -219 21z m208 -103 c34 -29 37 -36 42 -109 3
-45 -1 -61 -20 -90 -33 -48 -61 -60 -150 -60 l-77 0 -3 141 c-2 77 -1 143 2
146 3 3 44 3 91 1 74 -3 89 -6 115 -29z"/>
<path d="M11236 11490 c-3 -85 -6 -185 -6 -221 l0 -66 192 -6 c106 -3 193 -5
194 -4 1 1 4 19 7 40 l6 37 -52 0 c-29 0 -103 3 -164 7 l-113 6 0 59 0 58 130
0 130 0 0 29 c0 28 -1 28 -67 34 -38 4 -94 7 -125 7 l-58 0 0 50 0 50 155 -6
155 -7 0 37 c0 20 -6 38 -12 41 -7 2 -92 5 -189 7 l-176 3 -7 -155z"/>
<path d="M10141 11613 l-74 -4 7 -127 c4 -70 9 -169 13 -219 l6 -93 38 0 38 0
-6 84 -6 83 89 5 c49 3 94 3 100 1 17 -6 35 -52 41 -105 6 -47 7 -48 39 -48
29 0 34 4 34 23 0 37 -27 131 -39 135 -16 5 -14 17 14 58 45 67 28 149 -41
195 -30 19 -58 21 -253 12z m219 -83 c27 -27 26 -76 -2 -94 -14 -8 -61 -16
-115 -19 l-91 -4 -4 58 c-3 67 -6 65 107 72 28 2 58 4 68 5 9 1 26 -7 37 -18z"/>
<path d="M11827 11559 c-14 -139 -30 -370 -26 -373 2 -2 18 -6 34 -8 l30 -3 7
85 c23 253 21 252 59 47 21 -118 25 -130 48 -138 13 -6 30 -8 36 -5 6 2 31 57
55 122 72 196 72 196 65 74 -3 -58 -9 -129 -12 -157 l-6 -53 37 0 c20 0 36 3
37 8 0 4 8 103 17 220 l18 212 -31 0 c-16 0 -39 3 -50 6 -18 4 -26 -9 -68
-116 -26 -67 -44 -126 -41 -132 4 -6 3 -8 -4 -4 -6 3 -13 -2 -16 -12 -4 -10
-13 -19 -20 -19 -8 0 -12 6 -9 12 4 11 -43 275 -51 282 -2 2 -26 6 -53 10
l-50 5 -6 -63z"/>
<path d="M9615 11544 c-72 -37 -115 -111 -115 -196 1 -187 200 -288 329 -167
56 53 78 169 45 247 -17 42 -73 104 -86 96 -4 -3 -8 -1 -8 4 0 31 -115 42
-165 16z m161 -97 c90 -97 21 -265 -99 -243 -22 4 -46 18 -60 36 -14 16 -28
26 -32 22 -5 -4 -5 -2 -2 4 3 5 1 29 -5 52 -9 35 -7 51 8 90 10 26 17 51 16
55 -1 5 2 6 7 3 5 -3 22 1 37 9 43 23 93 12 130 -28z"/>
<path d="M12790 11461 c0 -3 -16 -89 -34 -191 -19 -102 -32 -188 -28 -191 8
-8 311 -53 317 -48 2 2 6 16 10 30 7 30 28 23 -193 61 -50 8 -62 13 -58 27 2
9 7 33 11 55 6 37 7 38 38 32 18 -4 63 -12 100 -18 74 -12 87 -7 87 38 0 19
-10 23 -102 38 -56 9 -103 18 -104 19 -1 1 1 17 3 35 6 38 8 39 148 12 55 -10
103 -16 106 -14 4 2 9 17 11 34 4 25 1 31 -16 36 -57 13 -296 50 -296 45z"/>
<path d="M13626 11124 c-32 -113 -55 -208 -53 -210 2 -3 18 -9 35 -13 l30 -9
17 71 c10 40 21 76 26 81 4 5 49 -3 104 -19 113 -32 150 -29 201 18 61 56 54
159 -14 203 -22 14 -255 84 -280 84 -5 0 -34 -93 -66 -206z m213 92 c102 -30
118 -43 105 -87 -15 -53 -31 -56 -138 -30 -53 12 -98 26 -100 29 -7 13 27 112
38 112 7 0 50 -11 95 -24z"/>
<path d="M14193 10993 c-34 -104 -64 -197 -67 -209 -5 -17 0 -22 29 -31 l35
-11 21 71 c12 40 24 75 28 79 3 3 44 -6 91 -22 75 -24 85 -31 92 -56 4 -16 3
-53 -2 -83 -6 -30 -10 -56 -10 -57 0 -8 55 -13 62 -6 14 14 26 113 18 144 -8
25 -5 29 27 45 88 41 97 175 16 228 -34 23 -232 87 -244 80 -5 -4 -9 -1 -9 4
0 6 -6 11 -13 11 -8 0 -36 -70 -74 -187z m234 61 c8 3 12 2 9 -3 -3 -5 6 -12
21 -16 50 -12 68 -62 36 -97 -9 -10 -25 -18 -35 -18 -26 0 -181 40 -190 48 -6
6 -1 29 27 108 2 8 21 5 61 -8 31 -10 63 -17 71 -14z"/>
<path d="M10635 11083 c-496 -23 -1004 -75 -1372 -140 l-91 -16 -20 -86 c-80
-338 -116 -681 -116 -1091 0 -308 9 -442 45 -709 144 -1047 644 -1986 1464
-2748 717 -666 1557 -1066 2505 -1192 443 -59 1038 -53 1455 14 984 158 1824
592 2545 1315 529 529 899 1113 1125 1770 37 109 43 136 33 148 -41 48 -449
386 -688 568 -1620 1235 -3613 1991 -5650 2144 -358 26 -936 37 -1235 23z
m-716 -363 l22 -70 69 4 c39 3 70 1 70 -2 0 -4 -25 -25 -55 -46 -30 -22 -55
-40 -55 -41 0 -1 9 -28 20 -60 11 -32 20 -62 20 -67 0 -5 -27 10 -59 33 l-59
41 -53 -40 c-30 -23 -55 -38 -57 -34 -1 5 7 35 18 67 l21 60 -28 23 c-15 13
-40 30 -55 40 -16 9 -28 19 -28 22 0 4 29 6 65 5 37 0 70 4 74 10 5 5 17 36
27 68 10 31 19 57 20 57 1 0 12 -31 23 -70z m5166 -694 l50 2 -39 -33 c-39
-33 -40 -34 -28 -71 6 -21 10 -40 7 -42 -2 -2 -19 8 -37 22 l-34 25 -38 -26
-39 -26 7 24 c3 13 9 34 12 45 4 16 -2 27 -25 43 -40 29 -39 36 5 36 38 0 46
7 65 60 l11 30 17 -45 17 -45 49 1z m-3051 -418 l61 -3 -42 -30 c-47 -33 -50
-47 -28 -110 8 -21 13 -41 11 -42 -1 -2 -23 13 -48 33 l-46 35 -53 -38 c-41
-29 -51 -33 -45 -18 4 11 14 39 21 61 l12 42 -46 33 -46 34 62 3 c60 3 62 4
69 35 3 18 11 43 17 57 9 23 11 21 25 -32 l16 -57 60 -3z m1789 -558 l62 -1
-25 -22 c-14 -12 -36 -29 -49 -38 -24 -15 -24 -15 -8 -64 9 -27 15 -50 13 -52
-2 -3 -23 9 -46 26 -45 33 -46 33 -102 -12 -43 -32 -45 -30 -22 38 l17 48 -26
19 c-14 10 -36 27 -49 38 l-23 19 62 1 62 0 18 56 17 56 19 -56 19 -56 61 0z
m-3489 -305 l18 -65 76 0 76 0 -57 -42 c-31 -23 -57 -47 -57 -53 0 -7 9 -37
19 -68 11 -32 17 -57 14 -57 -3 0 -30 18 -59 40 l-52 39 -62 -45 c-68 -50 -67
-51 -30 48 l18 48 -61 45 -61 45 76 0 76 0 18 65 c10 36 21 65 24 65 3 0 14
-29 24 -65z m3956 -70 l13 -54 60 -3 59 -3 -45 -33 -46 -32 15 -41 c23 -67 19
-74 -25 -40 -21 17 -44 31 -51 31 -7 0 -30 -14 -52 -31 -21 -17 -41 -29 -44
-27 -2 3 3 24 11 48 8 23 15 48 15 55 0 7 -21 27 -47 44 l-48 31 62 0 62 0 17
55 c10 30 21 55 24 55 4 0 13 -25 20 -55z m-1019 -12 c15 -47 19 -50 70 -49
l40 1 -37 -31 c-36 -31 -37 -32 -27 -73 12 -47 9 -49 -32 -16 l-29 24 -34 -25
c-18 -15 -35 -24 -38 -22 -2 3 2 23 10 46 l15 41 -35 21 c-19 12 -34 25 -34
29 0 4 19 7 42 7 41 -1 43 0 58 42 8 23 15 42 16 42 2 0 8 -17 15 -37z m-3438
-413 l62 -1 -23 -19 c-13 -11 -35 -28 -49 -38 l-26 -19 17 -48 c9 -27 16 -53
16 -58 0 -5 -22 7 -49 27 l-48 36 -44 -35 c-24 -19 -44 -33 -46 -32 -1 2 4 25
12 52 8 26 15 52 15 56 0 4 -21 23 -46 41 l-47 33 63 5 63 5 16 54 15 55 19
-57 19 -57 61 0z m1478 2 l16 -47 62 -3 63 -3 -46 -30 c-25 -17 -48 -34 -51
-38 -2 -5 5 -31 15 -59 11 -29 17 -52 14 -52 -3 0 -26 14 -50 32 l-44 31 -44
-31 c-24 -18 -47 -32 -50 -32 -3 0 1 19 9 41 22 62 19 74 -27 105 l-42 29 57
3 56 3 17 54 c10 30 20 52 23 49 3 -3 13 -26 22 -52z m5730 -22 l23 -70 75 0
74 0 -59 -42 c-32 -23 -60 -42 -62 -43 -1 -1 9 -32 23 -69 27 -72 27 -72 -46
-19 -26 18 -49 33 -51 33 -2 0 -28 -18 -58 -40 -29 -22 -55 -38 -57 -37 -2 2
6 30 17 62 11 32 20 61 20 65 0 4 -25 25 -56 46 l-57 39 74 5 74 5 20 67 c11
38 21 68 22 68 1 0 12 -31 24 -70z m707 -140 l45 0 -29 -22 c-16 -12 -32 -24
-37 -28 -4 -3 -1 -25 7 -48 8 -23 13 -42 10 -42 -3 0 -21 12 -39 26 l-34 26
-37 -29 -37 -28 6 30 c3 17 8 37 12 46 4 12 -5 23 -32 40 l-38 24 47 3 c44 3
47 5 59 40 19 59 22 60 38 9 14 -47 15 -47 59 -47z m-514 -305 l17 -54 56 -3
55 -3 -45 -33 -46 -32 15 -41 c22 -65 19 -74 -17 -47 -17 13 -37 27 -45 33 -9
7 -26 0 -59 -23 -25 -18 -47 -32 -49 -32 -2 0 5 24 15 53 19 58 22 51 -47 104
l-29 22 57 0 57 1 17 55 c10 30 21 55 24 55 3 0 14 -25 24 -55z m-3483 -20
l22 -64 70 -3 70 -3 -57 -39 c-31 -21 -56 -39 -56 -40 0 0 9 -30 20 -65 11
-35 19 -66 17 -67 -2 -2 -27 14 -57 36 -29 22 -58 36 -64 33 -6 -4 -32 -22
-58 -41 -27 -19 -48 -30 -48 -25 0 6 9 36 20 68 11 32 16 61 12 64 -5 3 -30
22 -56 41 l-48 35 70 3 71 3 21 64 c12 36 23 65 25 65 1 0 13 -29 26 -65z
m-2585 2 c10 -29 15 -32 57 -35 26 -2 47 -7 47 -13 0 -5 -3 -9 -7 -9 -5 0 -21
-10 -36 -23 -28 -22 -28 -22 -13 -64 8 -24 13 -43 10 -43 -3 0 -21 12 -40 26
l-34 26 -34 -26 c-19 -14 -37 -26 -39 -26 -3 0 0 19 6 42 10 41 10 42 -29 74
l-39 33 55 3 c54 3 55 3 64 40 11 42 16 41 32 -5z m5807 -409 c6 -5 35 -7 62
-4 55 5 55 6 -21 -50 l-28 -21 15 -56 c17 -61 17 -61 -43 -14 l-37 30 -46 -37
c-50 -42 -51 -41 -30 28 16 54 17 54 -47 93 -38 24 -35 30 15 27 60 -3 74 3
80 34 3 15 11 41 17 57 l12 30 19 -54 c11 -30 25 -59 32 -63z m-5103 27 l22
-65 71 0 72 -1 -34 -27 c-19 -15 -46 -36 -58 -47 l-24 -20 21 -59 c11 -33 18
-61 16 -63 -2 -3 -26 12 -54 31 -27 20 -54 36 -60 36 -6 0 -33 -18 -61 -40
-28 -22 -51 -37 -51 -33 0 5 9 37 20 72 11 36 18 65 17 66 -1 1 -27 19 -57 41
l-55 39 72 3 72 3 21 64 c12 36 23 65 25 65 2 0 13 -29 25 -65z m4205 -143
c10 -35 13 -37 60 -42 l49 -5 -38 -25 c-39 -26 -39 -30 -20 -99 l7 -24 -37 28
-37 28 -36 -26 c-20 -15 -39 -25 -41 -23 -2 2 4 21 13 42 l16 39 -38 32 -38
33 46 0 46 0 13 45 c14 51 20 50 35 -3z m-1237 -82 l47 -1 -38 -33 -39 -32 16
-39 c9 -21 15 -40 13 -41 -2 -2 -20 8 -41 22 l-37 25 -34 -25 c-18 -14 -36
-26 -38 -26 -3 0 3 21 12 46 15 41 15 46 0 54 -9 5 -27 18 -40 29 l-24 20 53
1 c38 0 52 4 52 14 0 8 5 27 11 43 l11 28 15 -42 c14 -42 15 -43 61 -43z
m1781 -50 l46 -1 -34 -29 c-35 -30 -37 -47 -15 -105 7 -17 3 -16 -28 8 -20 15
-40 27 -44 27 -4 0 -23 -12 -42 -27 l-35 -26 7 24 c20 73 20 75 -21 100 l-38
24 51 3 50 3 13 47 14 47 15 -47 c15 -48 16 -48 61 -48z m-1059 -42 c9 -25 14
-28 57 -28 l48 0 -38 -27 c-40 -28 -43 -37 -27 -79 15 -37 7 -40 -32 -11 l-34
26 -32 -26 c-36 -28 -50 -26 -33 5 19 36 12 59 -24 83 l-35 24 48 5 c45 5 48
7 62 48 16 45 16 45 40 -20z m536 -263 l18 -55 60 0 c67 -1 67 1 -9 -55 l-27
-20 20 -52 c11 -29 17 -53 13 -53 -5 0 -27 14 -50 31 l-42 30 -50 -35 c-27
-20 -49 -34 -49 -33 0 2 9 29 19 59 l19 56 -51 36 -52 36 62 0 62 0 17 55 c10
30 19 55 20 55 2 0 11 -25 20 -55z m-913 -166 c9 -6 37 -7 62 -4 25 3 45 3 45
1 0 -2 -22 -20 -50 -40 l-50 -36 20 -52 c11 -29 20 -54 20 -56 0 -2 -21 11
-46 29 -50 34 -53 34 -121 -11 l-32 -22 19 58 c11 31 20 58 20 60 0 1 -20 15
-45 31 -25 15 -45 31 -45 34 0 4 17 5 38 4 65 -5 77 2 97 58 l19 51 16 -48 c8
-26 23 -52 33 -57z m904 -326 c9 -37 9 -38 62 -41 l53 -3 -40 -30 -41 -30 14
-39 c16 -45 9 -49 -28 -20 -31 25 -45 25 -77 0 -36 -28 -41 -25 -23 17 l15 37
-38 33 -39 33 47 0 c46 0 47 1 59 40 7 22 16 40 20 40 4 0 11 -17 16 -37z"/>
<path d="M14860 10924 c-75 -33 -128 -109 -137 -199 -12 -113 74 -215 182
-215 50 0 118 29 134 57 6 10 11 14 11 8 0 -5 11 7 25 28 14 20 23 42 19 49
-4 6 -3 8 3 5 12 -8 23 38 23 92 0 35 -26 100 -52 132 -45 55 -137 74 -208 43z
m120 -69 c39 -20 60 -63 60 -120 0 -55 -19 -96 -57 -123 -42 -29 -78 -34 -117
-18 -48 20 -69 57 -69 117 1 58 26 105 73 136 39 27 70 29 110 8z"/>
<path d="M15382 10701 c-96 -49 -150 -195 -108 -295 36 -87 140 -137 222 -106
28 11 29 6 10 -41 -5 -12 0 -18 20 -23 14 -4 27 -6 28 -4 19 35 85 193 82 195
-2 3 -35 17 -72 32 l-68 28 -17 -21 c-17 -20 -16 -22 17 -39 19 -9 34 -20 34
-22 0 -11 -62 -35 -90 -35 -81 0 -124 69 -100 159 34 126 183 159 228 51 12
-29 27 -44 52 -54 34 -14 35 -13 38 10 4 28 -34 118 -47 110 -5 -3 -8 2 -7 11
0 10 -15 26 -39 40 -48 27 -133 30 -183 4z"/>
<path d="M15808 10345 l-98 -195 30 -15 c33 -17 44 -19 36 -6 -4 5 -3 11 2 13
4 1 20 29 36 60 15 32 30 60 34 62 4 2 43 -14 87 -37 71 -38 80 -45 83 -73 2
-17 -6 -54 -16 -82 l-20 -51 25 -17 c15 -9 29 -12 34 -7 18 18 50 127 44 150
-4 17 -1 25 12 29 48 14 83 40 97 69 28 59 16 125 -30 167 -19 16 -237 128
-252 128 -4 0 -51 -88 -104 -195z m219 56 c43 -22 84 -45 90 -53 15 -19 23
-58 11 -58 -5 0 -6 -5 -2 -12 4 -6 3 -8 -3 -5 -6 4 -16 0 -23 -8 -20 -24 -50
-18 -129 24 -41 21 -82 37 -90 34 -13 -4 -13 -3 -3 5 8 5 13 12 13 16 -1 11
43 96 50 96 4 0 42 -18 86 -39z"/>
<path d="M16325 10092 c-55 -97 -101 -182 -103 -189 -2 -6 18 -24 45 -39 26
-15 82 -46 123 -69 41 -23 96 -54 122 -69 l47 -26 16 31 c9 17 13 35 8 39 -16
13 -243 140 -252 140 -21 0 -16 27 12 72 17 26 33 48 36 48 3 -1 53 -27 111
-60 95 -54 106 -58 118 -43 24 33 12 48 -93 106 -58 32 -105 62 -105 65 0 15
40 72 50 72 6 0 68 -32 137 -70 69 -39 128 -68 131 -65 3 3 2 5 -2 5 -4 0 2
10 14 22 11 12 20 24 20 28 0 12 -211 120 -222 114 -6 -4 -8 -3 -5 3 6 9 -80
63 -99 63 -5 -1 -54 -80 -109 -178z"/>
<path d="M16941 9923 c-30 -12 -70 -57 -76 -83 -9 -39 13 -76 95 -167 52 -56
70 -83 70 -104 0 -39 -37 -48 -91 -23 -55 24 -92 70 -87 106 3 15 0 28 -5 28
-5 0 -20 9 -34 20 -14 11 -29 20 -33 20 -16 0 -20 -69 -7 -103 43 -102 217
-190 295 -148 12 6 31 30 43 52 28 57 15 90 -76 186 -41 43 -74 86 -75 95 -1
50 34 61 96 32 45 -22 76 -66 69 -97 -7 -25 16 -44 37 -30 6 3 8 1 5 -4 -4 -6
0 -16 7 -23 32 -26 48 58 21 109 -37 73 -198 157 -254 134z"/>
<path d="M17424 9596 c-17 -8 -40 -26 -52 -41 -41 -52 -25 -101 64 -205 69
-81 81 -104 64 -125 -26 -31 -127 -3 -144 41 -3 8 -9 13 -13 11 -5 -3 -9 14
-11 36 -2 33 -9 48 -34 70 -18 15 -35 27 -39 27 -11 0 -21 -76 -14 -100 4 -11
11 -18 16 -15 5 3 6 -1 3 -9 -9 -22 78 -103 142 -133 73 -33 124 -28 165 17
52 56 37 107 -62 222 -64 74 -74 109 -38 128 28 15 66 -1 109 -45 25 -26 31
-40 28 -60 -4 -20 1 -31 25 -50 40 -31 57 -18 57 40 0 34 -7 53 -33 86 -17 24
-35 42 -40 41 -4 -1 -16 7 -28 19 -23 23 -96 59 -119 58 -8 0 -29 -6 -46 -13z"/>
<path d="M17883 9213 c-54 -19 -129 -100 -144 -156 -24 -90 17 -192 91 -229
76 -37 186 -14 245 53 102 115 84 263 -38 323 -61 29 -93 31 -154 9z m152 -71
c-2 -2 6 -23 16 -48 16 -36 18 -51 10 -81 -6 -20 -7 -41 -4 -46 3 -6 2 -7 -4
-4 -6 4 -15 -4 -21 -17 -16 -37 -94 -70 -140 -60 -20 4 -42 8 -49 7 -7 0 -12
2 -11 6 4 13 -14 51 -21 47 -4 -3 -7 19 -6 49 4 105 63 157 172 153 34 -1 60
-4 58 -6z"/>
</g>
</svg>
