<?xml version="1.0" standalone="no"?>
<!DOCTYPE svg PUBLIC "-//W3C//DTD SVG 20010904//EN"
 "http://www.w3.org/TR/2001/REC-SVG-20010904/DTD/svg10.dtd">
<svg version="1.0" xmlns="http://www.w3.org/2000/svg"
 width="1920.000000pt" height="1296.000000pt" viewBox="0 0 1920.000000 1296.000000"
 preserveAspectRatio="xMidYMid meet">
<metadata>
Created by potrace 1.16, written by Peter Selinger 2001-2019
</metadata>
<g transform="translate(0.000000,1296.000000) scale(0.100000,-0.100000)"
fill="#000000" stroke="none">
<path d="M0 11350 l0 -1610 9600 0 9600 0 0 1610 0 1610 -9600 0 -9600 0 0
-1610z"/>
<path d="M6207 8973 c-4 -3 -7 -21 -7 -40 0 -31 -2 -33 -35 -33 -32 0 -35 -2
-35 -30 0 -28 3 -30 35 -30 l35 0 0 -57 c0 -54 -2 -59 -30 -75 -17 -10 -38
-31 -48 -48 -9 -16 -23 -30 -29 -30 -21 0 -15 -58 8 -81 13 -13 18 -27 14 -40
-5 -15 -2 -19 14 -19 28 0 26 -8 -6 -34 -18 -14 -59 -26 -124 -37 -165 -28
-250 -80 -308 -190 -32 -62 -55 -146 -41 -154 4 -3 10 13 13 35 7 55 49 141
91 187 46 51 134 91 243 110 47 8 87 12 89 10 3 -2 2 -11 -1 -19 -4 -10 -26
-18 -61 -22 -80 -9 -173 -43 -226 -81 -64 -47 -106 -134 -115 -239 -3 -42 -10
-79 -14 -82 -5 -3 -9 4 -9 15 0 12 -5 21 -11 21 -6 0 -8 -8 -4 -19 10 -34 -16
-34 -44 -1 -34 41 -62 38 -78 -10 -12 -37 -17 -32 -27 28 -8 45 13 194 30 213
8 8 14 20 14 26 0 6 6 14 13 17 32 16 -163 -7 -217 -25 -84 -28 -120 -55 -164
-119 l-37 -55 2 -128 c2 -103 0 -132 -12 -144 -8 -8 -15 -33 -15 -56 -1 -32
-3 -38 -10 -26 -7 11 -6 36 1 70 14 65 14 73 4 171 -10 100 5 153 59 215 66
75 200 128 343 135 29 2 53 7 53 12 0 4 -26 5 -57 2 -214 -25 -343 -92 -394
-206 -19 -40 -20 -57 -14 -165 3 -68 2 -131 -3 -145 -9 -24 -10 -23 -21 17
-14 52 -23 58 -46 33 -13 -14 -31 -20 -60 -20 -68 0 -102 -60 -53 -94 28 -20
44 -21 29 -3 -24 30 30 38 64 10 11 -10 8 -5 -8 10 -28 27 -35 28 -84 10 -20
-8 -15 22 6 41 13 12 32 17 55 15 23 -2 41 3 55 15 23 21 25 19 36 -49 4 -22
16 -60 26 -85 18 -40 21 -43 31 -26 6 10 8 34 5 53 -8 45 1 68 19 52 8 -6 14
-20 14 -31 0 -15 5 -18 21 -13 28 9 77 -12 85 -37 3 -11 3 -30 0 -42 -4 -16 1
-29 14 -41 27 -24 25 -35 -4 -35 -17 0 -30 10 -45 35 -11 19 -27 35 -35 35 -8
0 -21 2 -29 6 -8 3 -28 -7 -45 -21 l-31 -26 -26 50 c-14 28 -27 51 -30 51 -6
0 21 -62 46 -104 l21 -36 18 32 c24 45 71 51 96 13 26 -40 10 -75 -41 -91 -28
-8 -33 -12 -17 -13 12 -1 40 -19 62 -41 44 -44 47 -50 26 -50 -36 0 -27 -57
10 -66 31 -8 32 -44 3 -70 -43 -39 -43 -51 2 -94 23 -22 47 -40 53 -41 6 0 1
-4 -11 -9 -16 -6 -23 -18 -23 -35 0 -20 6 -27 30 -31 17 -4 30 -13 30 -20 0
-11 -39 -14 -215 -14 l-215 0 0 -273 0 -273 -57 -28 c-56 -27 -158 -66 -174
-66 -5 0 -10 37 -12 83 l-3 82 -2 -86 -2 -86 -87 -33 c-49 -18 -137 -55 -197
-82 -59 -26 -110 -48 -112 -48 -2 0 -5 73 -7 163 l-3 162 -2 -167 -2 -167 -32
-17 c-56 -29 -151 -95 -190 -132 l-38 -36 0 -212 0 -212 54 -49 c30 -27 84
-64 120 -83 l66 -35 0 -93 0 -93 -57 -25 c-111 -48 -146 -67 -179 -97 l-34
-29 0 -196 c0 -107 3 -192 7 -189 3 4 11 -3 17 -15 6 -12 31 -36 56 -53 38
-27 45 -37 44 -64 -2 -41 8 -39 40 8 42 61 44 102 8 160 l-30 49 50 21 c28 12
54 21 59 21 4 0 10 -35 12 -77 l3 -78 2 82 2 82 58 16 c155 43 203 60 281 96
46 21 90 39 97 39 8 0 14 4 14 9 0 4 24 24 53 43 28 20 73 54 100 78 l47 42 0
189 0 189 -38 27 c-21 16 -68 39 -105 53 l-67 25 0 161 0 161 68 31 c37 16 91
46 120 65 l52 36 1 -412 c0 -227 2 -432 5 -457 23 -246 45 -371 95 -528 189
-591 679 -921 1311 -881 450 29 781 212 1005 556 94 143 159 308 207 523 48
216 56 329 56 783 l0 418 46 -32 c62 -42 150 -82 399 -178 116 -45 213 -85
216 -89 4 -4 9 -87 11 -185 3 -97 7 -180 11 -183 11 -11 142 66 192 114 l50
47 3 209 3 208 -50 47 c-27 25 -76 61 -108 80 -32 19 -68 40 -80 48 -21 12
-23 22 -25 106 l-2 92 -3 -87 c-2 -49 -7 -88 -12 -88 -4 0 -50 20 -102 44 -52
24 -138 60 -192 81 l-98 37 2 130 c0 71 -2 132 -5 135 -12 12 -6 42 12 52 9 6
11 11 5 11 -8 0 -13 13 -13 32 0 17 -3 28 -6 25 -4 -4 -6 -90 -5 -192 1 -102
-2 -185 -7 -185 -19 0 -120 39 -180 69 l-62 31 0 270 0 270 -222 2 c-158 2
-222 6 -225 15 -2 6 6 13 18 15 12 2 27 11 33 21 9 14 7 21 -7 32 -24 17 -11
43 37 76 20 13 36 27 36 31 0 5 -16 26 -36 48 -39 43 -42 73 -6 78 27 4 31 46
5 60 -14 8 -12 12 13 25 16 8 38 24 48 36 11 12 31 21 45 22 23 1 22 2 -9 11
-47 13 -60 26 -60 58 0 57 73 82 104 35 9 -13 16 -32 17 -42 1 -12 3 -9 8 7 8
27 -7 48 -47 69 -30 16 -72 -4 -90 -42 -10 -20 -20 -27 -43 -27 -34 0 -37 10
-8 36 13 11 18 26 15 39 -13 51 34 96 83 80 16 -5 21 -2 21 13 0 11 7 25 15
32 19 16 23 4 27 -70 l3 -55 18 26 c10 15 23 54 30 87 15 71 21 80 43 61 9 -7
33 -12 54 -10 39 2 70 -17 70 -45 0 -17 -1 -17 -33 -5 -14 6 -29 6 -38 0 -10
-6 -7 -9 14 -9 29 0 34 -9 15 -28 -17 -17 4 -15 30 4 26 18 29 56 6 78 -9 10
-33 16 -58 16 -31 0 -48 6 -62 21 -17 19 -19 19 -31 3 -7 -10 -13 -26 -13 -36
0 -10 -4 -18 -9 -18 -17 0 -21 67 -10 155 10 78 9 95 -5 125 -9 21 -13 25 -9
10 3 -14 5 -54 3 -90 -5 -107 -4 -172 5 -231 5 -39 4 -58 -4 -63 -7 -5 -11 7
-11 37 0 27 -6 49 -15 57 -18 15 -19 64 -5 142 26 142 -61 268 -215 313 -64
18 -205 34 -205 23 0 -4 5 -8 11 -8 5 0 20 -21 31 -47 28 -62 33 -246 8 -251
-9 -1 -20 9 -27 28 -13 36 -43 40 -72 9 -11 -12 -28 -19 -41 -17 -19 3 -23 10
-26 61 -6 74 -35 151 -75 200 -54 66 -184 117 -296 117 -56 0 -63 2 -63 20 0
17 7 20 53 20 105 0 238 -48 300 -108 42 -41 51 -32 10 12 -48 52 -172 97
-308 111 -61 6 -73 11 -93 36 l-24 29 27 0 c15 0 24 4 20 10 -4 6 -11 7 -17 4
-6 -4 -9 -3 -6 2 21 47 33 64 45 64 8 0 13 12 13 35 0 24 -5 35 -14 35 -8 0
-22 13 -32 29 -9 15 -29 36 -45 45 -22 13 -29 26 -33 59 -9 73 -7 77 36 77 35
0 38 2 38 29 0 27 -3 30 -37 33 -31 2 -38 7 -39 26 -1 12 -2 29 -3 37 -1 15
-51 22 -64 8z m53 -298 l0 -54 63 -3 c54 -3 62 -5 62 -23 0 -19 -8 -20 -143
-23 -124 -2 -143 0 -149 14 -8 23 14 34 70 34 l47 0 0 48 c0 53 4 62 32 62 15
0 18 -8 18 -55z m16 -202 c19 -21 39 -56 45 -78 11 -41 7 -176 -6 -207 -4 -11
-3 -18 3 -18 24 0 32 174 12 236 -16 47 -6 54 19 13 28 -45 28 -173 2 -282
-20 -86 -36 -113 -47 -81 -9 25 -45 64 -58 64 -6 0 -28 -17 -50 -37 -30 -29
-42 -34 -55 -26 -25 15 -42 96 -48 218 -4 99 -2 113 17 144 25 40 38 34 20
-10 -16 -38 -15 -162 1 -222 6 -23 14 -37 16 -30 2 6 0 29 -6 50 -25 90 -6
234 34 249 8 3 15 12 15 20 0 12 26 33 43 34 4 0 24 -17 43 -37z m-209 -210
c-3 -2 -39 3 -81 11 -41 9 -93 16 -116 16 -22 0 -40 3 -40 8 0 16 133 58 205
64 29 3 30 2 33 -46 2 -26 1 -50 -1 -53z m477 72 c32 -8 67 -21 79 -27 20 -11
15 -14 -53 -30 -41 -9 -102 -21 -134 -24 -59 -7 -59 -7 -53 17 4 13 7 36 7 52
0 26 2 27 48 27 26 0 74 -7 106 -15z m-1024 -79 c0 -2 -6 -17 -13 -34 -16 -37
-95 -100 -169 -135 -72 -32 -124 -71 -159 -120 -21 -29 -28 -33 -33 -21 -26
67 33 198 108 242 47 28 119 52 186 61 72 11 80 12 80 7z m1545 -11 c71 -10
151 -42 192 -78 41 -36 83 -117 83 -160 l0 -28 -43 35 c-63 51 -128 77 -213
83 -69 6 -74 7 -74 29 0 13 -8 46 -19 73 -20 52 -18 64 8 57 9 -2 38 -7 66
-11z m-785 -182 c14 -31 17 -33 58 -27 38 6 42 4 42 -15 0 -32 -35 -126 -60
-161 -27 -38 -20 -38 47 0 53 30 93 39 93 20 0 -6 -6 -23 -14 -39 -14 -26 -13
-28 19 -45 19 -10 36 -24 39 -31 5 -14 -24 -50 -46 -58 -10 -4 -11 -7 0 -18 6
-7 12 -23 12 -36 0 -31 -29 -30 -97 4 -45 23 -53 31 -47 48 21 62 -10 118 -72
131 -26 5 -38 1 -64 -23 -33 -30 -41 -63 -25 -110 9 -26 -24 -51 -93 -69 -57
-14 -69 -6 -49 34 14 29 14 31 -14 51 -37 27 -36 36 2 72 28 27 30 31 20 60
-14 41 -15 39 17 39 15 0 50 -14 77 -30 62 -37 72 -37 47 -2 -27 38 -68 121
-76 156 l-7 29 49 -5 c47 -5 50 -4 67 29 24 43 54 41 75 -4z m-691 -79 c12
-15 21 -33 21 -41 0 -11 5 -11 30 2 72 37 74 23 24 -154 -7 -23 -6 -23 54 10
33 19 64 31 68 27 4 -4 7 -20 6 -36 0 -20 7 -32 29 -44 16 -10 29 -22 29 -28
0 -16 -40 -51 -50 -45 -13 8 -13 -7 -1 -39 11 -28 -9 -53 -31 -40 -48 29 -78
61 -78 85 0 14 -11 38 -25 54 -21 22 -33 26 -61 23 -32 -4 -40 1 -71 36 -19
23 -46 62 -59 89 -21 41 -22 48 -9 53 8 4 26 -1 40 -10 25 -16 25 -16 25 14 0
34 15 70 30 70 5 0 18 -12 29 -26z m1356 -12 c8 -30 12 -32 42 -26 22 4 33 2
33 -5 0 -21 -28 -80 -60 -127 -31 -44 -33 -45 -71 -39 -34 6 -42 3 -70 -24
-25 -26 -30 -38 -27 -69 3 -34 0 -39 -32 -54 -35 -18 -100 -24 -100 -10 0 4 7
18 15 30 15 20 14 24 -5 44 -26 29 -26 33 11 60 25 19 29 28 26 55 -6 43 15
44 72 2 24 -17 44 -29 46 -27 2 2 -7 35 -21 73 -35 105 -29 128 29 106 23 -9
29 -7 48 20 26 37 51 34 64 -9z m-648 -174 c14 -13 23 -33 23 -50 0 -36 -40
-78 -75 -78 -14 0 -37 11 -50 25 -70 69 30 170 102 103z m755 -20 l-20 -32 24
-18 c31 -25 30 -43 0 -64 -15 -9 -22 -21 -19 -30 4 -11 10 -8 25 11 23 30 38
31 68 7 32 -26 21 -70 -19 -78 -27 -6 -28 -8 -19 -34 12 -37 37 -58 76 -66 27
-5 36 -2 61 25 25 27 30 29 42 15 20 -24 -27 -65 -84 -71 -41 -5 -48 -2 -86
32 -38 35 -43 36 -59 22 -31 -29 -72 -39 -108 -27 -31 10 -77 54 -86 80 -2 6
-23 -7 -46 -29 -54 -52 -96 -55 -164 -12 -25 16 -48 34 -52 39 -4 7 -17 1 -33
-14 -36 -34 -124 -58 -182 -50 -58 8 -90 31 -117 83 l-20 40 -20 -36 c-45 -83
-142 -105 -243 -55 -29 15 -55 33 -58 40 -8 21 -18 17 -31 -11 -14 -31 -68
-65 -104 -65 -45 0 -109 31 -128 62 l-17 29 -13 -31 c-28 -67 -98 -89 -169
-52 l-35 17 -32 -32 c-20 -21 -42 -33 -58 -33 -35 0 -102 35 -115 59 -17 31 0
32 36 1 52 -46 108 -38 138 20 19 38 20 37 -14 43 -54 11 -42 87 14 87 31 0
48 -24 42 -57 -7 -36 6 -59 43 -78 61 -32 123 -7 140 55 11 43 35 53 45 20 9
-29 61 -68 99 -75 45 -9 92 16 113 60 15 31 15 36 -1 60 -32 49 12 102 60 70
28 -18 31 -41 8 -73 -14 -21 -14 -25 2 -50 39 -59 91 -81 161 -67 45 8 108 69
118 114 10 45 39 41 54 -6 33 -108 156 -147 245 -79 50 38 62 63 41 86 -21 23
-16 59 10 76 18 12 24 11 43 -2 28 -19 29 -60 2 -76 -24 -16 -25 -36 -2 -64
25 -32 55 -44 109 -44 58 0 90 19 109 66 15 37 44 46 44 14 0 -82 107 -135
164 -81 30 28 37 53 21 75 -11 14 -13 14 -18 2 -8 -19 -48 -6 -91 28 -27 23
-27 24 -12 48 13 21 14 30 4 58 -6 20 -7 35 -2 37 5 2 27 12 49 22 22 11 51
20 63 20 l24 1 -20 -32z m-1547 1 c30 -11 55 -24 55 -27 0 -4 -7 -18 -16 -30
-15 -22 -15 -47 1 -84 5 -13 -2 -22 -26 -37 -37 -23 -49 -20 -49 14 0 16 -11
30 -35 45 -41 25 -44 42 -11 67 21 17 22 21 10 37 -13 19 -11 36 6 36 5 0 34
-9 65 -21z m1130 -329 c279 -14 578 -39 590 -51 5 -6 5 -13 -2 -20 -8 -8 -63
-6 -194 5 -299 25 -650 38 -864 32 -397 -12 -612 -23 -849 -43 -73 -6 -78 -5
-74 13 3 17 22 21 208 36 463 39 797 47 1185 28z m343 -74 c100 -8 186 -17
191 -21 20 -12 -1 -32 -60 -61 -55 -26 -62 -27 -70 -12 -28 51 -74 63 -109 28
-40 -40 -12 -120 43 -120 29 0 43 10 60 42 l13 27 48 -46 c50 -49 54 -69 15
-66 -510 32 -1339 38 -1604 11 -188 -19 -199 -15 -129 50 47 43 64 51 64 30 0
-21 33 -48 60 -48 55 0 85 68 50 113 -36 45 -93 32 -113 -26 -6 -16 -11 -15
-65 12 -61 31 -89 55 -74 65 26 16 560 44 936 49 208 3 516 -8 744 -27z m-253
-222 c214 -10 425 -24 440 -30 9 -4 15 -14 13 -23 -4 -18 7 -18 -203 -1 -71 5
-261 14 -421 20 -327 12 -928 -1 -1124 -25 -98 -11 -117 -11 -129 1 -8 7 -12
16 -8 20 8 9 222 31 407 43 139 9 794 6 1025 -5z m843 -854 l-3 -721 -414 1
c-447 0 -431 -3 -431 54 0 39 -29 146 -46 170 -8 11 -14 24 -14 27 0 5 53 29
65 29 1 0 1 -20 1 -45 -1 -38 2 -45 18 -45 19 0 70 46 72 65 1 6 2 14 3 18 0
5 11 1 23 -7 27 -19 58 -21 58 -3 0 9 10 12 30 9 17 -2 30 0 30 6 0 6 12 12
28 14 19 2 27 8 26 21 -1 12 5 17 22 17 15 0 24 6 24 16 0 9 9 27 20 41 11 14
20 32 20 39 0 8 -9 14 -20 14 -28 0 -26 37 2 45 11 4 32 19 45 33 29 32 41 21
23 -21 -7 -18 -14 -48 -14 -69 -1 -20 -4 -40 -8 -44 -4 -4 -5 -25 -1 -47 4
-28 2 -42 -8 -48 -10 -6 -7 -9 13 -9 35 0 57 23 51 54 l-5 26 43 -19 c24 -11
44 -24 44 -28 -1 -4 -4 -28 -9 -51 -8 -41 -10 -44 -35 -37 -95 25 -190 11
-144 -22 17 -13 16 -15 -15 -39 -37 -29 -46 -62 -12 -44 30 16 90 2 90 -20 0
-25 10 -50 21 -50 14 0 56 44 63 68 9 28 22 28 36 1 9 -15 8 -24 0 -35 -10
-11 -9 -15 3 -20 38 -14 89 50 80 100 -4 21 -1 26 14 26 11 0 28 7 39 15 15
12 16 16 5 24 -11 7 -10 11 8 20 23 13 28 37 9 44 -8 2 -1 10 15 17 31 15 34
25 11 38 -14 8 -14 10 0 21 20 17 21 41 1 41 -11 0 -14 7 -9 25 6 26 -4 33
-23 14 -28 -28 -73 18 -73 74 0 20 4 22 52 19 48 -3 56 -1 83 28 41 43 40 103
-2 191 -18 36 -35 77 -39 93 -6 25 -8 26 -22 12 -22 -22 -17 -71 12 -121 35
-59 33 -65 -10 -24 -77 74 -81 129 -18 275 24 56 34 93 30 109 -3 13 -2 27 4
30 9 6 15 75 6 75 -2 0 -20 -15 -39 -32 -20 -18 -52 -46 -72 -62 -50 -40 -77
-97 -78 -165 0 -72 29 -130 123 -246 38 -48 70 -93 70 -100 0 -7 -7 -18 -15
-25 -26 -22 -68 4 -172 108 l-100 100 29 63 c27 60 29 69 27 202 -1 107 2 142
13 148 13 8 4 13 -17 9 -5 -1 -4 4 3 11 18 19 15 28 -8 22 -11 -3 -17 -9 -14
-14 3 -5 0 -9 -7 -9 -8 0 -8 -4 1 -15 9 -10 9 -15 1 -15 -6 0 -11 4 -11 9 0 5
-9 13 -20 16 -11 4 -17 11 -14 17 4 6 9 5 15 -3 13 -22 23 -1 11 23 -6 13 -11
18 -11 11 -1 -14 -31 -6 -31 9 0 5 6 6 13 3 6 -4 0 3 -16 15 -15 12 -24 27
-21 33 5 8 3 8 -6 0 -11 -10 -16 -9 -27 5 -14 16 -14 16 -9 0 3 -11 0 -18 -7
-18 -7 0 -3 -7 7 -15 11 -8 16 -18 12 -22 -4 -4 -10 -3 -14 2 -4 6 -38 9 -75
7 -62 -3 -69 -6 -78 -29 -5 -13 -9 -39 -9 -58 0 -31 -2 -33 -27 -26 -19 5 -29
16 -35 38 -10 37 -43 52 -65 30 -34 -34 28 -97 94 -97 30 0 32 -2 27 -29 -4
-16 -1 -32 5 -35 17 -11 13 -26 -6 -26 -9 0 -40 -12 -69 -27 -66 -33 -72 -30
-175 73 -60 60 -69 74 -52 74 12 0 25 5 29 12 12 20 5 70 -13 90 -21 23 -32
23 -26 -1 3 -14 -2 -20 -21 -23 -14 -3 -26 -2 -26 1 0 11 -76 30 -98 24 -27
-7 -28 -20 -2 -28 11 -3 20 -12 20 -20 0 -7 3 -20 6 -29 4 -10 1 -16 -9 -16
-34 0 -67 -23 -67 -47 0 -16 4 -22 12 -17 15 9 129 12 126 3 -2 -4 -22 -23
-46 -42 -40 -34 -42 -37 -22 -47 14 -7 31 -8 55 -1 32 9 35 8 35 -12 0 -29 15
-51 29 -43 6 4 11 1 11 -6 0 -16 31 -44 57 -51 15 -4 14 -5 -4 -6 -26 -1 -30
-23 -8 -41 9 -8 28 -10 55 -5 49 8 51 -4 8 -40 -19 -17 -39 -25 -51 -21 -17 4
-16 1 7 -23 l27 -28 -47 -51 c-50 -57 -74 -66 -74 -28 0 20 -6 24 -45 29 -24
4 -51 4 -60 1 -17 -7 -21 -24 -5 -24 21 0 9 -26 -20 -43 -16 -10 -35 -27 -41
-39 -10 -18 -9 -20 9 -16 21 6 59 -26 81 -69 6 -13 21 -27 32 -33 18 -10 19
-9 14 13 -5 17 -2 26 9 30 9 4 16 18 16 32 0 23 2 25 22 14 36 -19 51 -38 45
-59 -6 -22 5 -25 34 -10 14 8 25 6 44 -6 22 -14 32 -15 66 -5 21 7 46 8 53 4
21 -12 79 -94 71 -101 -9 -9 -95 -33 -125 -35 -19 -2 -26 3 -28 21 -5 37 -90
69 -108 41 -3 -6 -1 -15 7 -19 13 -8 16 -17 21 -55 4 -28 -19 -25 -40 6 -25
37 -100 102 -152 132 -51 29 -140 57 -182 57 l-28 0 0 450 0 450 665 0 665 0
-2 -720z m-2128 179 c0 -30 1 -30 48 -27 43 3 47 5 50 31 3 25 7 28 35 25 27
-2 33 -8 35 -31 3 -27 6 -28 50 -25 43 3 47 5 50 31 3 23 8 27 33 27 30 0 30
0 27 -52 l-3 -53 -195 0 -195 0 -3 53 -3 52 35 0 c33 0 36 -2 36 -31z m-300
-119 c0 -28 3 -30 35 -30 32 0 35 2 35 30 0 25 4 30 25 30 21 0 25 -5 25 -30
0 -28 2 -30 40 -30 38 0 40 2 40 30 0 20 5 30 15 30 19 0 35 -31 35 -69 l0
-31 -150 0 -150 0 0 50 c0 47 2 50 25 50 21 0 25 -5 25 -30z m670 0 c0 -28 2
-30 41 -30 38 0 40 1 37 28 -3 23 1 27 25 30 24 3 27 0 27 -27 0 -29 2 -31 40
-31 38 0 40 2 40 30 0 25 4 30 25 30 23 0 25 -3 25 -50 l0 -50 -155 0 -155 0
0 34 c0 47 9 66 31 66 14 0 19 -7 19 -30z m1127 -112 c35 -18 61 -37 60 -43
-3 -9 -30 -17 -106 -32 -13 -2 -36 -17 -51 -33 -25 -27 -30 -28 -59 -17 -27
10 -37 9 -62 -6 -44 -24 -50 -22 -47 21 3 34 6 37 36 40 17 2 32 7 32 12 0 4
11 11 25 14 14 4 25 13 25 21 0 8 7 15 15 15 7 0 18 6 22 14 7 11 24 21 43 25
3 1 33 -13 67 -31z m1234 -128 c-19 -35 -23 -52 -15 -60 23 -23 64 22 64 70 0
27 18 25 31 -4 15 -32 -7 -80 -39 -84 -22 -3 -23 -8 -21 -65 3 -60 1 -64 -30
-58 -4 0 -12 29 -16 64 l-7 62 -19 -40 c-10 -22 -20 -44 -22 -49 -1 -5 -13 -4
-24 3 l-22 11 24 42 c21 40 55 118 69 160 4 15 9 16 29 7 l24 -11 -26 -48z
m-3511 -419 l0 -278 -87 -41 c-79 -36 -310 -122 -328 -122 -12 0 -1 548 12
561 10 10 379 158 396 159 4 0 7 -125 7 -279z m1443 166 c12 11 37 -19 37 -45
0 -20 -25 -103 -35 -120 -4 -6 -34 11 -38 21 -2 7 -2 -1 1 -18 4 -29 4 -30
-15 -12 -26 23 -31 22 -25 -9 4 -24 3 -25 -16 -13 -29 18 -44 56 -32 79 15 29
51 36 68 14 14 -18 14 -18 7 1 -17 45 -17 76 0 95 13 14 22 17 30 10 6 -5 15
-7 18 -3z m129 -354 l2 -78 3 79 c4 77 4 78 23 61 11 -10 20 -30 20 -44 -1
-30 -39 -145 -40 -118 0 24 -19 21 -29 -5 -8 -20 -10 -21 -16 -5 -4 9 -13 17
-21 17 -10 0 -11 -6 -3 -26 9 -26 9 -26 -13 -12 -36 24 -50 59 -34 83 23 34
54 31 71 -7 20 -46 19 -26 -2 32 -16 45 -16 49 0 74 10 14 22 26 27 26 6 0 11
-35 12 -77z m-1172 45 c0 -13 1 -220 3 -461 1 -240 -1 -437 -4 -437 -7 0 -53
151 -74 243 -34 154 -68 583 -51 651 6 24 10 26 66 26 56 0 60 -2 60 -22z
m280 -664 c0 -616 -2 -685 -15 -674 -9 7 -38 41 -65 75 l-50 63 0 611 0 611
65 0 65 0 0 -686z m290 -80 l0 -765 21 6 c12 4 43 19 68 34 l46 27 3 612 c1
339 6 612 11 612 5 0 14 -15 21 -32 15 -38 78 -129 97 -141 10 -6 13 -105 13
-474 l0 -467 36 35 c19 18 53 57 75 85 l39 51 0 326 0 326 42 -15 c23 -8 65
-15 94 -17 l51 -2 6 -80 c7 -93 44 -235 88 -341 87 -209 268 -403 474 -510 52
-27 95 -52 95 -55 0 -12 -144 -77 -226 -103 -162 -50 -244 -61 -464 -61 -190
0 -213 2 -313 28 -147 37 -271 90 -394 168 l-23 14 0 752 0 753 70 0 70 0 0
-766z"/>
<path d="M6111 7356 c-39 -42 -26 -117 25 -136 14 -6 66 -10 115 -10 82 0 92
2 114 25 36 35 37 85 2 123 -19 20 -29 22 -127 22 -99 0 -108 -2 -129 -24z
m247 -6 c29 -27 29 -80 1 -106 -17 -15 -40 -20 -115 -22 -89 -4 -94 -3 -119
22 -31 31 -32 72 -3 103 20 21 30 23 118 23 83 0 99 -3 118 -20z"/>
<path d="M6160 7330 c-25 -25 -26 -52 -2 -73 14 -13 38 -17 90 -17 62 0 73 3
86 22 21 30 20 44 -4 68 -16 16 -33 20 -85 20 -52 0 -69 -4 -85 -20z"/>
<path d="M5638 7354 c-56 -30 -64 -90 -19 -135 25 -25 37 -29 83 -29 71 0 124
16 143 43 23 33 19 84 -10 112 -21 22 -33 25 -97 25 -45 -1 -84 -7 -100 -16z
m187 -19 c31 -30 32 -66 3 -99 -19 -21 -36 -27 -91 -32 -47 -5 -75 -3 -92 6
-32 17 -49 59 -36 91 17 45 41 55 139 58 44 1 57 -3 77 -24z"/>
<path d="M5682 7333 c-43 -6 -66 -40 -53 -77 10 -25 14 -26 84 -26 84 0 110
13 110 55 0 49 -35 61 -141 48z"/>
<path d="M6647 7340 c-29 -34 -33 -56 -16 -93 17 -37 48 -50 131 -55 72 -4 78
-3 102 21 34 34 35 85 2 124 -22 26 -31 28 -108 31 -84 4 -85 4 -111 -28z
m211 -15 c29 -34 28 -70 -4 -102 -24 -24 -30 -25 -96 -19 -84 8 -101 16 -117
55 -10 24 -10 34 3 59 21 40 28 42 116 37 66 -3 78 -7 98 -30z"/>
<path d="M6676 7324 c-9 -8 -16 -26 -16 -38 0 -39 29 -55 104 -57 57 -2 71 1
82 16 31 41 12 74 -47 86 -67 13 -106 11 -123 -7z"/>
<path d="M6267 4350 c-4 -16 -15 -49 -26 -73 -11 -23 -21 -54 -22 -67 -4 -37
20 -116 42 -136 18 -16 19 -15 34 19 20 47 19 164 -1 233 -8 30 -17 54 -18 54
-2 0 -6 -13 -9 -30z"/>
<path d="M6634 4130 c-5 -5 -48 -15 -94 -21 -91 -12 -148 -39 -205 -99 -16
-16 -32 -30 -37 -30 -13 0 -9 58 5 63 6 3 -4 6 -24 6 -33 1 -36 -1 -31 -24 2
-14 2 -25 -1 -25 -4 0 -53 30 -109 66 l-103 66 -55 -7 c-78 -10 -100 -11 -140
-2 l-34 7 29 -31 c63 -66 127 -85 266 -79 57 3 88 -8 125 -42 18 -16 21 -27
16 -64 -5 -44 -4 -46 19 -42 19 2 25 10 27 36 3 28 10 36 45 51 23 10 73 21
111 25 96 10 139 36 191 119 18 28 17 45 -1 27z"/>
<path d="M8029 7411 c9 -6 10 -14 3 -27 -5 -11 -7 -25 -5 -31 6 -16 -11 -17
-38 -3 -16 9 -24 6 -43 -15 -24 -26 -42 -80 -23 -68 6 4 8 -4 5 -20 -3 -15 -1
-24 4 -21 5 3 15 0 23 -6 19 -16 1 -57 -18 -42 -8 6 -25 5 -47 -3 -32 -11 -33
-12 -15 -24 19 -11 19 -12 1 -9 -24 4 -46 39 -28 45 6 3 12 11 12 19 0 8 7 14
16 14 14 0 14 3 3 16 -7 9 -9 18 -3 22 10 8 12 47 3 57 -3 3 -25 -8 -50 -24
-24 -16 -46 -28 -49 -26 -13 8 -9 -53 5 -71 13 -16 14 -16 9 -1 -4 11 -1 17 9
17 19 0 29 -37 12 -44 -8 -3 -11 -13 -8 -25 3 -12 10 -18 17 -14 6 4 23 6 38
4 16 -1 35 5 44 13 17 18 39 22 29 6 -3 -5 3 -10 14 -10 12 0 20 3 20 8 -1 4
-1 17 0 30 1 31 19 28 23 -5 2 -20 9 -29 25 -31 28 -4 51 17 45 40 -3 14 -8
15 -24 7 -22 -12 -25 -11 -28 11 -5 34 0 52 14 47 11 -4 13 5 10 44 -2 31 0
47 6 44 6 -3 10 -2 10 4 0 5 -4 12 -10 16 -5 3 -2 14 8 25 20 24 32 26 32 5 0
-8 8 -15 17 -15 13 0 14 3 6 11 -6 6 -9 18 -6 25 4 11 -5 14 -38 14 -29 0 -39
-3 -30 -9z"/>
<path d="M4278 7380 c-42 -22 -83 -72 -93 -112 -7 -29 10 -72 26 -63 5 4 9 1
9 -4 0 -6 7 -11 15 -11 8 0 15 -9 15 -20 0 -17 6 -19 53 -17 43 2 51 6 49 20
-2 10 4 17 14 17 10 0 14 -5 10 -15 -6 -17 28 -40 45 -29 7 4 1 16 -14 33 -23
25 -77 167 -77 204 0 21 -6 21 -52 -3z"/>
<path d="M4580 7375 c0 -14 -11 -57 -25 -96 -13 -40 -21 -77 -18 -83 4 -6 6
-19 4 -30 -2 -16 2 -18 31 -13 18 2 41 1 50 -4 10 -6 19 -5 23 2 9 14 1 21
-29 23 -14 0 -26 5 -26 10 0 4 -6 6 -14 3 -26 -10 -26 22 0 42 30 23 47 19 62
-15 13 -28 24 -30 42 -9 7 8 15 13 19 11 3 -1 13 5 22 14 14 15 15 22 4 55
-29 83 -145 155 -145 90z"/>
<path d="M8088 7318 c-3 -16 0 -28 5 -28 5 0 6 -12 3 -26 -6 -21 -4 -25 8 -21
15 6 28 -25 19 -49 -4 -10 -10 -11 -25 -3 -24 13 -33 6 -23 -18 5 -10 8 -20 7
-23 0 -3 13 -6 29 -6 16 -1 26 2 24 6 -3 5 -1 11 4 15 6 3 8 12 4 20 -3 10 1
15 11 15 9 0 19 7 22 15 4 8 11 15 18 15 15 0 18 70 4 97 -9 19 -18 22 -59 20
-43 -2 -48 -4 -51 -29z"/>
<path d="M7943 7052 c-51 -1 -93 -7 -93 -12 0 -6 -25 -10 -55 -10 -52 0 -55
-1 -55 -25 0 -21 5 -25 30 -25 29 0 30 -1 30 -48 0 -36 5 -50 20 -60 12 -7 17
-18 14 -29 -4 -11 -3 -14 3 -7 4 7 17 14 28 17 19 4 19 5 -1 6 -29 1 -54 42
-54 86 l0 36 275 -1 c151 -1 279 1 285 5 5 3 10 12 9 18 0 9 -2 9 -6 0 -4 -10
-76 -13 -314 -13 -268 0 -309 2 -309 15 0 13 42 15 313 16 171 1 299 4 282 6
-16 2 -39 8 -50 13 -22 11 -204 17 -352 12z"/>
<path d="M4130 7005 c0 -22 4 -25 35 -25 35 0 35 0 35 -44 0 -26 6 -48 15 -56
8 -7 15 -23 15 -35 0 -51 -4 -50 216 -47 l206 3 -4 -45 c-2 -30 1 -47 9 -51
16 -6 17 -42 2 -47 -7 -2 -10 -10 -8 -17 3 -8 10 -3 19 14 11 21 12 30 2 45
-15 25 -16 110 -1 110 7 0 9 9 5 24 -4 16 0 29 14 41 11 10 20 28 19 39 0 15
-2 17 -6 6 -3 -8 -16 -25 -28 -38 -22 -22 -26 -22 -231 -20 -133 2 -208 7
-207 13 1 6 -5 14 -13 18 -8 5 -14 24 -14 47 l0 40 240 0 c240 0 241 0 250
-22 l9 -23 0 23 c1 18 7 22 31 22 25 0 30 4 30 25 l0 25 -320 0 -320 0 0 -25z
m630 0 c0 -13 -41 -15 -310 -15 -269 0 -310 2 -310 15 0 13 41 15 310 15 269
0 310 -2 310 -15z m-95 -175 c0 -13 -31 -15 -204 -18 -118 -1 -209 2 -214 7
-27 27 9 31 211 29 176 -3 207 -5 207 -18z"/>
<path d="M7759 5636 c-42 -18 -91 -43 -108 -55 l-32 -23 3 -188 3 -189 40 -35
c22 -20 68 -55 102 -78 l62 -43 1 -307 c0 -319 -4 -358 -41 -358 -26 0 -43
-35 -29 -59 14 -27 13 -41 -5 -41 -12 0 -15 -15 -15 -75 l0 -75 123 2 122 2
-117 3 -118 4 0 60 0 60 310 -3 c284 -3 345 0 290 15 -18 5 -20 11 -14 45 5
34 3 42 -15 54 -11 7 -21 22 -21 33 0 20 -5 20 -230 17 l-230 -3 0 305 c0 191
4 306 10 306 5 0 24 -8 42 -18 56 -32 163 -71 265 -98 54 -14 103 -29 108 -33
6 -4 36 -15 68 -26 32 -10 60 -22 63 -26 2 -4 -7 -24 -21 -45 -41 -60 -28
-139 30 -194 l24 -23 -5 34 c-6 40 -2 46 53 81 23 15 44 36 48 48 3 11 11 20
16 20 5 0 9 79 9 189 l0 189 -31 27 c-35 29 -118 72 -191 100 l-48 18 -2 86
-2 86 -3 -82 c-2 -46 -8 -83 -12 -83 -19 0 -282 99 -347 131 l-69 34 -5 122
-5 123 -76 -34z m528 -1260 c-3 -8 5 -18 19 -25 25 -11 34 -54 14 -66 -5 -3
-7 -12 -3 -20 4 -13 -32 -15 -267 -15 -213 0 -271 3 -268 13 4 9 69 13 264 17
l259 6 -266 2 c-227 2 -268 4 -273 17 -10 27 5 45 36 45 22 0 29 4 25 14 -3 8
-3 17 0 20 4 3 110 6 236 6 190 0 228 -2 224 -14z"/>
<path d="M4193 4358 c-28 -13 -39 -44 -23 -63 14 -17 -2 -45 -26 -45 -11 0
-14 -17 -14 -70 l0 -70 108 2 107 2 -102 3 -103 4 0 59 0 59 300 3 c165 2 305
2 310 0 6 -2 10 -30 10 -63 l0 -58 -117 -4 -118 -3 123 -2 122 -2 0 74 c0 66
-2 74 -21 79 -17 5 -19 9 -10 26 13 23 14 58 4 64 -19 11 -67 18 -58 9 6 -6
19 -12 30 -14 26 -4 32 -38 10 -55 -15 -10 -16 -15 -5 -28 11 -13 -17 -15
-264 -15 -198 0 -275 3 -270 11 3 6 0 22 -7 36 -13 23 -11 27 16 49 33 26 32
28 -2 12z"/>
<path d="M8002 4075 c-27 -6 -75 -26 -105 -43 -69 -39 -108 -40 -187 -7 -91
38 -124 34 -178 -22 -28 -29 -41 -48 -33 -51 18 -6 55 30 40 39 -19 11 28 21
64 13 17 -3 59 -21 91 -38 84 -44 165 -43 253 2 81 42 132 42 223 2 100 -44
157 -42 260 10 50 25 93 40 116 40 36 0 37 0 19 20 -25 27 -78 26 -143 -5 -70
-32 -96 -32 -177 6 -79 37 -170 50 -243 34z"/>
<path d="M4330 4071 c-14 -4 -48 -20 -77 -35 -65 -32 -103 -33 -171 -1 -59 28
-108 31 -134 11 -26 -19 -22 -26 14 -26 18 0 70 -18 116 -41 77 -37 90 -41
146 -37 38 2 83 14 120 31 83 38 135 36 230 -9 67 -32 84 -36 129 -31 30 3 84
21 127 42 61 29 82 35 115 31 l40 -6 -28 25 c-37 33 -88 33 -159 0 -73 -34
-110 -32 -197 12 -67 34 -83 38 -160 40 -47 1 -97 -1 -111 -6z"/>
<path d="M3937 3973 c-15 -14 -5 -23 26 -23 18 0 70 -18 115 -40 103 -51 153
-53 254 -10 95 40 149 40 231 -2 91 -47 156 -46 266 6 66 31 89 37 119 33 l37
-6 -24 19 c-33 28 -65 25 -148 -17 -108 -53 -154 -54 -249 -9 -97 46 -145 47
-247 6 -106 -42 -153 -40 -252 10 -75 38 -114 48 -128 33z"/>
<path d="M8440 3940 c-97 -51 -151 -53 -252 -10 -96 41 -144 41 -233 -2 -98
-46 -162 -45 -265 5 -97 48 -124 48 -160 3 -14 -18 -14 -19 7 -8 35 19 64 14
143 -25 102 -50 167 -51 264 -5 88 41 138 42 231 2 100 -42 150 -40 253 10 50
25 95 40 118 40 31 0 35 2 24 15 -19 23 -48 17 -130 -25z"/>
<path d="M3947 3903 c-14 -13 -6 -18 28 -21 20 -1 71 -20 115 -42 101 -51 148
-53 250 -9 98 42 147 41 230 -2 54 -28 76 -33 130 -33 56 0 75 5 138 38 61 32
81 37 114 33 36 -5 39 -4 26 9 -32 32 -82 29 -169 -12 -109 -51 -166 -52 -259
-4 -84 43 -133 43 -234 1 -104 -43 -150 -42 -250 9 -77 39 -106 47 -119 33z"/>
<path d="M8435 3869 c-71 -36 -86 -40 -135 -37 -31 3 -82 16 -116 32 -87 39
-134 38 -224 -4 -103 -48 -159 -48 -261 3 -90 44 -127 47 -166 11 -22 -20 -23
-23 -6 -15 35 18 60 13 141 -26 104 -51 169 -52 260 -5 42 21 78 32 106 32 27
0 64 -11 106 -32 94 -47 158 -46 264 6 60 29 87 37 112 33 26 -4 32 -2 27 9
-4 10 0 12 12 8 13 -5 16 -3 13 7 -9 26 -53 19 -133 -22z"/>
<path d="M0 1605 l0 -1605 9600 0 9600 0 0 1605 0 1605 -9600 0 -9600 0 0
-1605z"/>
</g>
</svg>
