<?xml version="1.0" standalone="no"?>
<!DOCTYPE svg PUBLIC "-//W3C//DTD SVG 20010904//EN"
 "http://www.w3.org/TR/2001/REC-SVG-20010904/DTD/svg10.dtd">
<svg version="1.0" xmlns="http://www.w3.org/2000/svg"
 width="736.000000pt" height="490.000000pt" viewBox="0 0 736.000000 490.000000"
 preserveAspectRatio="xMidYMid meet">
<metadata>
Created by potrace 1.16, written by Peter Selinger 2001-2019
</metadata>
<g transform="translate(0.000000,490.000000) scale(0.100000,-0.100000)"
fill="#000000" stroke="none">
<path d="M0 3755 l0 -1145 3680 0 3680 0 0 165 0 165 -1805 0 -1805 0 0 165 0
165 1805 0 1805 0 0 160 0 160 -1802 2 -1803 3 -3 163 -2 162 1805 0 1805 0 0
165 0 165 -1805 0 -1805 0 0 165 0 165 1805 0 1805 0 0 160 0 160 -3680 0
-3680 0 0 -1145z m430 1030 c11 -32 15 -35 53 -35 l42 -1 -34 -28 c-32 -27
-33 -30 -22 -61 14 -43 9 -47 -27 -20 l-30 23 -30 -22 c-41 -29 -43 -27 -28
17 14 38 14 38 -22 63 l-36 24 46 3 c44 3 46 5 52 38 9 44 21 43 36 -1z m504
-35 l41 -1 -34 -28 c-32 -27 -33 -30 -22 -61 14 -43 9 -47 -27 -20 l-30 23
-30 -22 c-40 -28 -42 -27 -29 15 11 35 10 38 -23 65 l-34 29 47 0 c26 0 47 4
47 9 0 5 5 22 11 38 l12 28 15 -37 c14 -35 18 -38 56 -38z m395 35 c11 -32 16
-35 54 -35 l42 -1 -34 -29 c-31 -27 -33 -30 -22 -61 14 -42 9 -46 -28 -19
l-31 21 -29 -20 c-39 -28 -41 -27 -28 15 11 35 10 37 -23 65 l-35 28 47 1 c46
0 47 1 54 35 3 19 9 35 13 35 4 0 13 -16 20 -35z m449 3 c7 -30 12 -33 53 -36
l44 -3 -34 -28 c-32 -27 -33 -30 -22 -61 14 -43 9 -47 -27 -20 l-30 23 -30
-22 c-40 -28 -42 -27 -29 15 11 35 10 38 -23 65 l-34 29 46 0 c46 0 47 1 54
35 8 44 21 45 32 3z m450 0 c7 -30 12 -33 53 -36 l44 -3 -34 -28 c-32 -27 -33
-30 -22 -61 14 -43 9 -47 -27 -20 l-30 23 -30 -22 c-40 -28 -42 -27 -29 15 11
35 10 38 -23 65 l-34 29 46 0 c44 0 46 1 52 35 9 44 23 45 34 3z m452 -3 c11
-32 15 -35 53 -35 l42 -1 -34 -29 c-31 -27 -33 -31 -22 -61 16 -47 14 -55 -11
-32 -40 35 -47 36 -83 8 -19 -14 -35 -24 -35 -22 0 3 6 22 14 44 l14 39 -37
24 -36 25 47 3 c45 3 48 5 54 38 8 43 19 43 34 -1z m450 0 c11 -32 15 -35 53
-35 l42 -1 -34 -29 c-31 -27 -33 -30 -22 -61 14 -42 9 -46 -28 -19 l-31 21
-29 -20 c-39 -28 -41 -27 -28 15 11 35 10 37 -23 65 l-35 28 47 1 c46 0 47 1
54 35 3 19 10 35 14 35 5 0 14 -16 20 -35z m446 3 c9 -30 14 -34 54 -38 l45
-5 -34 -26 c-32 -25 -33 -28 -22 -59 17 -50 14 -53 -24 -25 l-34 27 -30 -21
c-39 -28 -41 -27 -28 15 11 35 10 38 -23 65 l-34 29 46 0 c46 0 47 1 54 35 8
44 18 45 30 3z m-3370 -221 c9 -28 15 -32 54 -35 l43 -3 -36 -25 c-36 -24 -36
-24 -21 -59 20 -48 19 -49 -22 -21 l-37 25 -35 -27 -36 -27 7 25 c18 64 18 65
-15 88 l-33 22 42 0 c41 0 43 2 54 40 13 44 19 44 35 -3z m450 0 c9 -28 16
-33 53 -37 l43 -5 -31 -18 c-33 -20 -37 -31 -21 -73 14 -36 9 -38 -30 -9 l-33
24 -35 -27 c-31 -23 -34 -24 -29 -7 19 63 18 69 -15 93 l-33 22 42 0 c41 0 43
2 54 40 13 44 19 44 35 -3z m450 6 c8 -35 12 -38 52 -43 l44 -5 -31 -18 c-33
-20 -37 -31 -21 -73 15 -38 6 -41 -30 -10 l-31 26 -36 -27 c-31 -24 -35 -25
-30 -8 19 63 18 69 -15 93 l-33 22 42 0 c41 0 43 2 54 40 7 22 15 40 19 40 3
0 11 -17 16 -37z m450 -6 c9 -28 16 -33 53 -37 l43 -5 -31 -18 c-33 -20 -37
-31 -21 -73 14 -36 9 -38 -30 -9 l-33 24 -35 -27 -36 -27 8 25 c18 60 18 65
-13 85 -17 11 -31 22 -31 25 0 3 18 4 39 2 39 -4 40 -3 52 37 13 45 19 45 35
-2z m450 6 c9 -36 11 -38 53 -41 l44 -3 -36 -25 -36 -24 15 -36 c8 -20 13 -38
11 -40 -2 -2 -18 7 -37 21 l-33 24 -35 -27 -36 -27 7 25 c18 64 18 65 -15 88
l-33 22 42 0 c41 0 43 2 54 40 7 22 15 40 19 40 3 0 11 -17 16 -37z m450 -6
c9 -28 16 -33 53 -37 l43 -5 -31 -18 c-33 -20 -37 -31 -21 -73 14 -36 9 -38
-30 -9 l-33 24 -35 -27 -36 -27 8 25 c19 63 19 66 -16 88 l-33 22 42 0 c41 0
43 2 54 40 13 44 19 44 35 -3z m450 0 c9 -28 16 -33 53 -37 l43 -5 -31 -18
c-34 -20 -36 -26 -22 -75 5 -17 9 -32 7 -32 -1 0 -17 11 -35 25 l-34 24 -35
-27 c-31 -23 -34 -24 -29 -7 19 63 18 69 -15 93 l-33 22 42 0 c41 0 43 2 54
40 13 44 19 44 35 -3z m450 0 c7 -20 18 -33 30 -33 10 -1 28 -3 39 -3 18 -2
17 -4 -9 -26 -28 -23 -29 -26 -18 -61 6 -21 10 -39 8 -41 -1 -1 -17 8 -36 22
l-33 24 -35 -27 -36 -27 7 25 c18 64 18 65 -15 88 l-33 22 42 0 c41 0 43 2 54
40 13 44 19 44 35 -3z m-2873 -247 l42 -1 -35 -28 c-32 -27 -33 -31 -22 -55
19 -43 14 -49 -23 -26 l-35 22 -29 -21 c-39 -28 -41 -27 -28 15 11 35 10 38
-23 65 l-34 29 42 0 c25 0 44 5 47 13 2 6 10 26 16 42 l11 30 15 -42 c14 -41
16 -43 56 -43z m450 0 l42 -1 -34 -28 c-32 -26 -33 -30 -23 -61 16 -45 17 -44
-23 -20 l-35 22 -29 -21 c-40 -29 -42 -27 -26 19 l14 39 -37 23 -37 23 43 3
c24 2 45 9 47 15 3 7 10 26 16 42 l11 30 15 -42 c14 -41 16 -43 56 -43z m450
0 l42 -1 -34 -28 c-32 -27 -33 -30 -22 -61 14 -43 9 -47 -27 -20 l-30 23 -30
-22 c-17 -11 -32 -21 -35 -21 -3 0 0 19 6 41 8 33 7 43 -4 50 -8 4 -23 15 -34
23 -19 15 -18 15 23 16 25 0 44 5 47 13 2 6 10 26 16 42 l11 30 15 -42 c14
-41 16 -43 56 -43z m447 2 l43 -3 -33 -28 c-32 -26 -33 -29 -22 -61 15 -42 11
-45 -21 -20 -31 25 -36 25 -67 0 -35 -28 -39 -25 -26 21 9 33 8 42 -4 49 -8 5
-24 16 -35 24 -19 15 -18 15 23 16 25 0 44 5 47 13 2 6 10 26 16 42 l12 30 12
-40 c11 -38 14 -40 55 -43z m451 -2 l44 -5 -33 -24 c-34 -24 -36 -34 -15 -87
6 -15 1 -15 -31 5 l-38 24 -30 -23 c-33 -25 -45 -21 -29 8 19 35 12 57 -21 77
l-33 20 43 3 c24 2 45 9 47 15 3 7 10 26 16 42 l12 30 12 -40 c11 -38 14 -40
56 -45z m452 0 l42 -1 -34 -28 c-32 -26 -33 -30 -23 -61 16 -45 17 -44 -23
-20 l-35 22 -29 -21 c-16 -12 -31 -21 -34 -21 -2 0 1 18 7 41 9 33 8 42 -4 49
-8 5 -24 16 -35 24 -19 15 -18 15 23 16 25 0 44 5 47 13 2 6 10 26 16 42 l11
30 15 -42 c14 -41 16 -43 56 -43z m450 0 l42 0 -33 -26 c-34 -27 -36 -37 -15
-90 6 -15 1 -15 -31 5 l-38 24 -28 -22 c-39 -28 -40 -27 -27 15 11 35 10 38
-23 65 l-34 29 42 0 c25 0 44 5 47 13 2 6 10 26 16 42 l11 30 15 -42 c14 -41
16 -43 56 -43z m407 3 c0 -2 19 -3 43 -3 l42 0 -33 -26 c-34 -27 -36 -37 -15
-90 6 -15 1 -15 -31 5 l-38 24 -28 -22 c-16 -11 -31 -21 -33 -21 -2 0 1 18 7
41 9 33 8 42 -4 49 -8 5 -24 16 -35 24 -19 14 -17 15 28 16 34 0 47 4 47 14 0
8 5 27 11 43 l11 28 14 -40 c7 -22 14 -41 14 -42z m-3386 -178 c7 -33 9 -35
46 -35 46 0 51 -11 14 -35 -27 -17 -28 -36 -8 -90 7 -17 3 -16 -29 8 l-37 28
-29 -20 c-39 -28 -41 -27 -30 11 13 45 13 45 -21 65 -40 24 -38 31 12 35 38 3
43 6 52 36 12 42 22 41 30 -3z m450 0 c7 -34 8 -35 54 -35 l47 -1 -35 -28
c-33 -28 -34 -30 -23 -65 13 -41 6 -44 -31 -15 l-27 21 -36 -28 -36 -27 6 24
c4 13 10 34 13 45 4 17 -1 26 -25 40 -41 25 -39 32 11 36 38 3 43 6 52 36 12
42 22 41 30 -3z m450 0 c7 -34 8 -35 54 -35 l47 -1 -34 -28 c-35 -29 -36 -39
-14 -98 5 -14 -1 -12 -31 10 l-37 29 -36 -28 -36 -27 6 24 c4 13 10 34 13 45
4 17 -1 26 -25 40 -41 25 -39 32 11 36 38 3 43 6 52 36 12 42 22 41 30 -3z
m450 0 c7 -33 9 -35 46 -35 46 0 51 -11 14 -35 -27 -17 -28 -36 -8 -90 7 -17
3 -16 -29 8 l-37 28 -31 -21 c-37 -27 -42 -23 -28 19 11 31 9 34 -22 61 l-34
29 42 1 c38 0 43 3 54 35 7 19 16 35 20 35 4 0 10 -16 13 -35z m450 0 c7 -33
9 -35 46 -35 48 0 50 -9 10 -38 -28 -21 -29 -23 -15 -57 21 -49 19 -51 -20
-20 l-36 27 -36 -28 -36 -27 6 24 c4 13 10 34 13 45 4 17 -1 26 -25 40 -41 24
-39 34 8 34 36 0 41 3 52 35 7 19 16 35 20 35 4 0 10 -16 13 -35z m450 0 c7
-33 9 -35 46 -35 46 0 51 -11 14 -35 -27 -17 -28 -37 -8 -89 6 -17 1 -15 -29
8 l-36 28 -31 -22 c-37 -26 -44 -23 -30 14 14 39 13 43 -20 63 -40 24 -38 31
12 35 38 3 43 6 52 36 12 42 22 41 30 -3z m452 -8 c10 -30 13 -31 55 -29 l44
3 -34 -29 c-35 -29 -36 -41 -14 -98 5 -13 -2 -11 -30 10 l-37 28 -37 -28 -36
-27 6 24 c4 13 10 34 13 45 4 17 -1 26 -25 40 -41 25 -39 32 11 36 38 3 43 6
52 36 10 36 16 34 32 -11z m448 8 c7 -33 9 -35 46 -35 47 0 49 -7 13 -36 -25
-20 -26 -24 -16 -58 13 -41 6 -44 -31 -15 l-27 21 -36 -28 -36 -27 6 24 c4 13
10 34 13 45 4 17 -1 26 -25 40 -41 25 -39 32 11 36 38 3 43 6 52 36 12 42 22
41 30 -3z m-2871 -255 c40 -1 41 -1 22 -16 -11 -8 -26 -19 -34 -23 -11 -7 -11
-15 -1 -45 15 -47 10 -52 -25 -24 l-28 22 -38 -22 -38 -22 14 39 13 39 -36 26
c-38 27 -37 29 16 26 19 -1 34 4 37 12 2 7 10 27 16 43 l11 30 15 -42 c14 -41
16 -43 56 -43z m450 -2 l42 -3 -33 -20 c-25 -15 -32 -25 -28 -40 3 -11 9 -31
13 -44 l6 -25 -33 24 -33 24 -39 -22 c-43 -25 -44 -25 -24 23 15 35 15 35 -22
60 l-37 25 43 0 c25 0 44 5 47 13 2 6 10 26 16 42 l11 30 15 -42 c13 -39 17
-42 56 -45z m450 0 l42 -3 -33 -20 c-34 -20 -35 -25 -15 -89 5 -18 3 -18 -25
3 -37 26 -54 27 -77 1 -26 -29 -35 -25 -24 12 14 49 12 54 -23 77 l-33 21 43
0 c25 0 44 5 47 13 2 6 10 26 16 42 l11 30 15 -42 c13 -39 17 -42 56 -45z
m448 5 c47 6 50 -5 9 -30 -32 -18 -32 -23 -13 -88 5 -19 5 -19 -18 -2 -47 34
-52 34 -96 1 -22 -16 -22 -16 -13 17 15 50 13 55 -22 78 l-33 21 43 0 c25 0
44 5 47 13 2 6 10 26 16 42 l11 30 15 -44 c15 -43 16 -43 54 -38z m452 -5 l42
-3 -33 -20 c-25 -15 -32 -25 -28 -40 3 -11 9 -31 13 -45 7 -25 6 -25 -18 -7
-41 30 -49 30 -81 7 -16 -12 -32 -20 -34 -17 -2 2 2 20 10 39 l15 35 -37 27
-37 26 43 0 c25 0 44 5 47 13 2 6 10 26 16 42 l11 30 15 -42 c13 -39 17 -42
56 -45z m450 0 l42 -3 -33 -20 c-25 -15 -32 -25 -28 -40 3 -11 9 -31 13 -44
l6 -25 -33 24 -33 24 -39 -22 c-43 -25 -44 -25 -24 22 14 34 14 34 -22 60
l-37 26 43 0 c25 0 44 5 47 13 2 6 10 26 16 42 l11 30 15 -42 c13 -39 17 -42
56 -45z m448 4 c47 4 50 -5 9 -29 -23 -13 -30 -23 -26 -38 3 -11 9 -31 13 -45
7 -25 6 -25 -18 -7 -47 34 -51 34 -99 0 -23 -18 -24 -17 -16 2 20 53 18 69
-16 93 l-33 22 43 0 c25 0 44 5 47 13 2 6 10 26 16 42 l11 30 15 -43 c15 -43
16 -44 54 -40z m452 -4 l42 -3 -33 -20 c-34 -20 -35 -25 -15 -89 5 -18 3 -18
-25 3 -37 26 -43 26 -76 0 -32 -26 -40 -21 -26 15 16 42 13 52 -22 75 l-33 21
43 0 c25 0 44 5 47 13 2 6 10 26 16 42 l11 30 15 -42 c13 -39 17 -42 56 -45z
m-3427 -170 c9 -30 14 -33 53 -36 l44 -3 -34 -28 c-32 -27 -33 -30 -22 -65 13
-42 11 -43 -29 -15 l-30 22 -30 -23 c-36 -27 -41 -23 -27 20 11 31 10 34 -22
61 l-34 28 44 3 c41 3 46 6 53 36 5 17 12 32 17 32 4 0 12 -15 17 -32z m450
-3 c6 -34 8 -35 52 -35 l46 0 -34 -29 c-33 -27 -34 -30 -23 -65 13 -42 11 -43
-29 -15 l-30 22 -30 -23 c-36 -27 -41 -23 -27 20 11 31 10 34 -22 61 l-34 28
42 1 c39 0 43 3 54 35 7 19 16 35 21 35 4 0 10 -16 14 -35z m449 3 c9 -30 14
-33 54 -36 l44 -3 -34 -28 c-32 -27 -33 -30 -22 -65 13 -42 11 -43 -29 -15
l-30 22 -30 -23 c-36 -27 -41 -23 -27 20 11 31 10 34 -22 61 l-34 28 45 3 c40
3 45 6 54 36 5 17 12 32 15 32 4 0 11 -15 16 -32z m449 -3 c7 -34 8 -35 54
-35 l46 0 -34 -29 c-33 -27 -34 -30 -23 -65 13 -42 11 -43 -29 -15 l-30 22
-30 -23 c-36 -27 -41 -23 -27 20 11 31 10 34 -22 61 l-34 28 44 3 c41 3 46 6
53 36 11 42 24 41 32 -3z m452 3 c9 -30 14 -33 53 -36 l44 -3 -34 -28 c-32
-27 -33 -30 -22 -65 13 -42 11 -43 -29 -15 l-30 22 -30 -23 c-36 -27 -41 -23
-27 20 11 31 10 34 -22 61 l-34 28 42 1 c38 0 42 3 53 35 14 44 24 44 36 3z
m449 0 c9 -29 15 -34 53 -38 l44 -5 -32 -24 c-33 -24 -35 -40 -14 -95 6 -16 1
-15 -30 9 l-37 28 -30 -22 c-37 -28 -42 -24 -28 19 11 31 10 34 -22 61 l-34
28 42 1 c39 0 43 3 54 35 16 43 22 44 34 3z m450 0 c9 -30 15 -34 55 -38 l45
-5 -33 -24 c-35 -24 -37 -40 -16 -95 6 -16 1 -15 -30 9 l-37 28 -30 -22 c-37
-28 -42 -24 -28 18 11 31 9 34 -22 61 l-34 29 42 1 c38 0 43 3 54 35 16 43 22
44 34 3z m450 0 c9 -30 14 -33 54 -36 l44 -3 -34 -28 c-32 -27 -33 -30 -22
-65 13 -42 11 -43 -29 -15 l-30 22 -30 -23 c-36 -27 -41 -23 -27 20 11 31 10
34 -22 61 l-34 28 42 1 c39 0 43 3 54 35 16 43 22 44 34 3z m-2877 -246 c50
-4 52 -12 11 -36 -24 -14 -29 -23 -25 -40 3 -11 9 -32 13 -45 l6 -24 -34 26
-35 26 -39 -26 c-32 -22 -37 -23 -30 -7 20 47 17 70 -9 88 -37 23 -32 37 10
33 21 -3 37 0 40 7 2 6 9 25 15 41 l11 30 12 -35 c11 -32 17 -35 54 -38z m414
3 c4 -4 23 -7 42 -7 44 0 45 -8 5 -32 -24 -14 -29 -23 -25 -40 3 -11 9 -32 13
-46 l7 -25 -36 27 -35 27 -33 -24 c-19 -14 -35 -23 -36 -22 -2 2 2 20 8 41 11
36 11 40 -15 60 -37 29 -34 40 9 33 23 -4 37 -2 39 6 3 7 10 26 16 42 l11 30
12 -32 c6 -17 14 -35 18 -38z m479 -3 c48 -5 53 -14 18 -37 -21 -14 -28 -26
-24 -40 2 -11 8 -31 12 -44 l6 -24 -35 26 -35 27 -33 -25 c-18 -14 -35 -23
-36 -22 -2 2 2 20 8 41 11 36 11 39 -15 58 -37 27 -34 38 13 38 22 0 40 4 40
9 0 5 5 22 11 38 l11 28 12 -35 c11 -30 18 -35 47 -38z m404 38 c8 -36 14 -40
60 -42 43 -2 44 -7 5 -33 -31 -20 -32 -26 -13 -89 4 -16 0 -15 -29 8 l-35 26
-33 -25 c-18 -14 -35 -23 -36 -22 -2 2 2 20 8 41 11 36 11 39 -15 58 -37 27
-34 36 11 35 35 -1 38 1 46 36 11 45 22 47 31 7z m474 -39 c7 -5 26 -7 42 -5
38 5 37 -7 -2 -30 -24 -14 -29 -23 -25 -40 3 -11 9 -32 13 -46 l7 -25 -36 27
-35 27 -38 -26 c-33 -22 -37 -23 -31 -7 20 51 18 70 -8 87 -37 25 -32 39 11
35 25 -2 38 2 41 12 3 8 9 26 15 40 l9 25 12 -33 c6 -18 17 -37 25 -41z m427
37 c9 -30 14 -33 52 -36 50 -4 52 -11 11 -36 -24 -14 -29 -23 -25 -40 3 -11 9
-32 13 -46 l6 -25 -35 27 -35 27 -33 -24 c-19 -14 -35 -23 -36 -22 -2 2 2 20
8 41 11 36 11 39 -15 58 -37 27 -34 38 11 35 35 -2 37 0 46 36 12 46 20 47 32
5z m504 -40 c48 5 51 -7 9 -32 -24 -14 -29 -23 -25 -40 3 -11 9 -32 13 -46 l7
-25 -36 27 -35 27 -38 -26 c-33 -22 -37 -23 -31 -7 20 52 19 72 -8 89 -36 24
-32 36 9 30 23 -3 37 0 40 8 3 7 10 26 16 42 l11 30 14 -40 c14 -39 15 -40 54
-37z m450 0 c48 5 51 -6 9 -33 -31 -20 -31 -25 -13 -85 l8 -25 -36 27 -35 27
-38 -26 c-33 -22 -37 -23 -31 -7 20 51 18 70 -8 87 -34 23 -33 39 2 37 41 -3
52 -1 52 9 0 5 5 22 11 38 l11 28 14 -40 c14 -39 15 -40 54 -37z m-2074 -181
c9 -28 16 -33 52 -37 l42 -5 -30 -20 c-33 -22 -35 -30 -20 -71 14 -36 6 -41
-26 -15 -33 26 -39 26 -71 1 -32 -25 -36 -22 -21 20 11 32 10 35 -23 62 l-33
28 41 0 c40 0 43 2 54 40 13 44 19 44 35 -3z m1349 0 c9 -28 15 -33 53 -37
l42 -5 -30 -20 c-32 -21 -36 -38 -20 -79 10 -28 0 -35 -20 -11 -21 25 -49 28
-77 6 -14 -12 -28 -20 -29 -18 -2 2 1 19 6 38 10 32 8 36 -22 61 l-33 27 41 1
c34 0 43 4 52 25 7 14 12 33 12 42 0 23 12 8 25 -30z m450 0 c9 -28 15 -33 55
-37 l45 -5 -32 -20 c-35 -20 -39 -37 -23 -79 10 -28 0 -35 -20 -11 -21 25 -49
28 -77 6 -33 -26 -36 -23 -21 19 11 32 10 35 -23 62 l-33 28 41 0 c40 0 43 2
54 40 14 44 18 44 34 -3z m-3149 1 c9 -29 14 -34 52 -38 l42 -5 -30 -20 c-32
-21 -37 -43 -19 -77 16 -29 4 -33 -27 -9 -33 26 -39 26 -71 1 -32 -25 -36 -22
-21 20 11 32 10 35 -23 62 l-33 28 41 0 c38 0 42 3 53 35 14 44 24 44 36 3z
m450 0 c9 -30 14 -34 54 -38 l45 -5 -32 -20 c-36 -21 -37 -25 -24 -73 10 -34
2 -42 -19 -17 -21 25 -49 28 -77 6 -14 -12 -28 -20 -29 -18 -2 2 1 19 6 38 10
32 8 36 -22 62 l-32 27 41 0 c38 0 42 3 53 35 14 44 24 44 36 3z m450 0 c9
-30 14 -34 54 -38 l45 -5 -32 -20 c-36 -21 -37 -25 -24 -73 10 -34 2 -42 -19
-17 -21 25 -49 28 -77 6 -33 -26 -36 -23 -21 19 11 32 10 35 -23 62 l-33 28
41 0 c38 0 42 3 53 35 14 44 24 44 36 3z m900 0 c9 -30 14 -34 54 -38 l45 -5
-37 -23 -37 -23 14 -39 c14 -41 7 -52 -15 -25 -21 25 -49 28 -77 6 -33 -26
-39 -21 -24 21 11 31 10 35 -21 61 l-32 27 41 0 c38 0 42 3 53 35 14 44 24 44
36 3z m450 0 c9 -29 14 -34 52 -38 l42 -5 -30 -20 c-33 -22 -34 -26 -21 -73
11 -38 9 -39 -29 -11 l-28 22 -38 -24 c-32 -20 -37 -20 -31 -5 21 53 19 63
-15 90 l-33 26 42 0 c39 0 43 3 54 35 16 43 24 44 35 3z m-2030 -210 c9 -30
14 -34 54 -38 l45 -5 -34 -26 c-32 -25 -33 -28 -22 -59 17 -50 14 -53 -24 -25
l-34 27 -30 -21 c-39 -28 -41 -27 -28 15 11 35 10 37 -23 65 l-35 28 47 1 c46
0 47 1 54 35 8 44 18 45 30 3z m454 -3 c11 -32 15 -35 53 -35 l42 -1 -34 -29
c-31 -27 -33 -30 -22 -61 14 -42 9 -46 -28 -19 l-31 21 -37 -28 c-29 -22 -35
-24 -30 -10 22 59 21 69 -14 98 l-34 28 47 1 c46 0 47 1 54 35 3 19 10 35 14
35 5 0 14 -16 20 -35z m449 0 c11 -32 16 -35 54 -35 l42 -1 -34 -29 c-31 -27
-33 -31 -22 -61 17 -49 14 -52 -24 -24 l-34 27 -37 -29 c-30 -22 -36 -24 -31
-10 22 59 21 69 -14 98 l-34 28 47 1 c46 0 47 1 54 35 3 19 9 35 13 35 4 0 13
-16 20 -35z m447 3 c9 -30 14 -33 52 -36 50 -4 52 -11 12 -35 -33 -20 -34 -24
-20 -63 14 -36 7 -40 -29 -14 l-31 21 -26 -20 c-37 -29 -44 -26 -31 15 11 35
10 37 -23 64 l-35 29 45 3 c41 3 46 6 55 36 5 17 12 32 16 32 3 0 10 -15 15
-32z m453 -3 c11 -32 16 -35 54 -35 l42 -1 -34 -29 c-31 -27 -33 -30 -22 -61
14 -42 9 -46 -27 -19 l-30 23 -28 -22 c-38 -30 -44 -26 -31 15 11 35 10 38
-23 65 l-34 29 46 0 c46 0 47 1 54 35 3 19 9 35 13 35 4 0 13 -16 20 -35z
m451 0 c11 -32 15 -35 53 -35 l42 -1 -34 -28 c-32 -27 -33 -30 -22 -61 14 -43
9 -47 -28 -20 l-31 21 -37 -28 c-29 -22 -35 -24 -30 -10 22 59 21 69 -14 98
l-34 28 47 1 c46 0 47 1 54 35 3 19 10 35 14 35 5 0 14 -16 20 -35z m449 0
c11 -32 16 -35 52 -35 47 0 49 -10 9 -33 -33 -20 -34 -24 -20 -63 14 -36 7
-40 -29 -14 l-31 21 -26 -20 c-37 -29 -44 -26 -31 15 11 35 10 37 -23 65 l-35
28 47 1 c46 0 47 1 54 35 3 19 9 35 13 35 4 0 13 -16 20 -35z m447 3 c9 -30
14 -33 54 -36 l45 -3 -34 -28 c-32 -27 -33 -30 -22 -61 14 -43 9 -47 -28 -20
l-31 21 -26 -20 c-37 -29 -44 -26 -31 15 11 35 10 38 -22 65 l-34 28 44 3 c40
3 45 6 54 36 5 17 12 32 16 32 3 0 10 -15 15 -32z m-3370 -215 c8 -34 12 -38
44 -40 19 0 40 -2 45 -2 6 -1 -5 -11 -22 -22 -36 -23 -39 -33 -23 -75 14 -36
5 -42 -23 -16 -29 27 -41 27 -79 1 -28 -21 -30 -21 -25 -3 19 64 19 69 -13 87
-41 25 -38 36 9 30 39 -5 40 -5 52 36 7 22 15 41 19 41 3 0 11 -17 16 -37z
m450 0 c6 -28 15 -38 29 -39 76 -4 73 -2 38 -25 -36 -23 -38 -28 -24 -77 9
-29 8 -31 -9 -22 -10 6 -22 15 -25 20 -10 16 -35 12 -67 -11 -28 -21 -30 -21
-25 -3 19 63 18 69 -13 89 -40 27 -38 33 10 29 38 -2 40 -1 51 37 7 21 15 39
19 39 3 0 11 -17 16 -37z m450 0 c8 -36 11 -38 47 -38 44 0 46 -7 10 -33 -26
-19 -26 -22 -15 -58 14 -47 9 -54 -21 -26 -29 27 -41 27 -79 1 -28 -21 -30
-21 -25 -3 19 63 18 69 -13 89 -38 25 -38 33 0 27 37 -5 57 10 65 49 9 39 20
37 31 -8z m450 -6 c9 -27 16 -32 45 -34 19 -1 39 -2 44 -2 6 -1 -5 -11 -22
-22 -36 -23 -39 -33 -23 -75 14 -36 5 -42 -23 -16 -29 27 -41 27 -79 1 -28
-21 -30 -21 -25 -3 19 63 18 69 -13 89 -40 26 -38 31 9 27 39 -4 40 -3 52 37
13 45 19 45 35 -2z m450 0 c9 -27 16 -32 45 -33 19 -1 38 -2 44 -3 5 0 -7 -12
-27 -26 l-37 -25 15 -36 c19 -45 14 -50 -19 -24 -32 25 -42 25 -80 -2 l-30
-22 6 25 c4 13 10 33 13 44 4 15 -3 25 -26 39 -37 21 -32 32 15 27 32 -2 35 0
46 38 13 45 19 45 35 -2z m450 0 c9 -27 16 -32 45 -33 19 -1 38 -2 44 -3 5 0
-7 -12 -28 -26 l-37 -26 15 -36 c19 -44 15 -49 -18 -23 -32 25 -42 25 -80 -2
l-30 -22 6 25 c18 63 18 64 -15 87 l-33 22 42 0 c41 0 43 2 54 40 13 44 19 44
35 -3z m449 0 c9 -27 15 -32 45 -34 19 0 40 -2 45 -2 6 -1 -5 -11 -22 -22 -36
-23 -38 -28 -24 -77 5 -17 9 -32 7 -32 -1 0 -17 11 -35 25 l-34 24 -35 -27
c-31 -23 -34 -24 -29 -7 19 64 18 70 -13 90 -16 11 -30 22 -30 25 0 3 18 4 40
4 38 -2 40 0 52 37 13 43 18 43 33 -4z m451 0 c9 -28 15 -32 47 -32 45 0 46
-7 8 -35 -29 -20 -29 -21 -15 -55 20 -48 19 -48 -24 -23 l-39 22 -33 -24 -33
-24 6 25 c4 13 10 33 13 44 4 15 -3 25 -26 38 -41 25 -38 36 9 30 39 -5 40 -5
52 36 13 45 19 45 35 -2z"/>
<path d="M0 2120 l0 -160 3680 0 3680 0 0 160 0 160 -3680 0 -3680 0 0 -160z"/>
<path d="M0 1470 l0 -160 3680 0 3680 0 0 160 0 160 -3680 0 -3680 0 0 -160z"/>
<path d="M0 815 l0 -165 3680 0 3680 0 0 165 0 165 -3680 0 -3680 0 0 -165z"/>
<path d="M0 160 l0 -160 3680 0 3680 0 0 160 0 160 -3680 0 -3680 0 0 -160z"/>
</g>
</svg>
